<?xml version="1.0" encoding="utf-8"?>
<!-- Generator: Adobe Illustrator 25.2.1, SVG Export Plug-In . SVG Version: 6.00 Build 0)  -->
<svg version="1.1" id="Camada_1" xmlns="http://www.w3.org/2000/svg" xmlns:xlink="http://www.w3.org/1999/xlink" x="0px" y="0px"
	 viewBox="0 0 1080 1080" style="enable-background:new 0 0 1080 1080;" xml:space="preserve"
	 height="40"
	 width="100"
>
<style type="text/css">
	.st0{fill:#FFFFFF;} 
</style>
<g>
	<path d="M87.9,572.46c-7.74-4.21-13.8-10.02-18.19-17.44c-4.39-7.42-6.58-15.79-6.58-25.11c0-9.32,2.22-17.69,6.65-25.11
		c4.43-7.42,10.52-13.23,18.25-17.44c7.74-4.21,16.4-6.31,25.99-6.31c7.78,0,14.88,1.36,21.31,4.07
		c6.42,2.71,11.85,6.65,16.29,11.81l-11.4,10.72c-6.88-7.42-15.34-11.13-25.38-11.13c-6.51,0-12.35,1.43-17.51,4.28
		c-5.16,2.85-9.18,6.81-12.08,11.87c-2.9,5.07-4.34,10.81-4.34,17.24c0,6.42,1.45,12.17,4.34,17.24c2.89,5.07,6.92,9.02,12.08,11.88
		c5.16,2.85,10.99,4.28,17.51,4.28c10.04,0,18.5-3.75,25.38-11.27l11.4,10.86c-4.43,5.16-9.89,9.09-16.35,11.81
		c-6.47,2.71-13.59,4.07-21.37,4.07C104.3,578.78,95.64,576.67,87.9,572.46z"/>
	<path d="M177,573.62c-5.88-3.17-10.47-7.58-13.78-13.23c-3.3-5.65-4.95-12.06-4.95-19.2c0-7.15,1.65-13.52,4.95-19.14
		c3.3-5.61,7.89-10,13.78-13.16c5.88-3.17,12.49-4.75,19.81-4.75c7.42,0,14.07,1.58,19.95,4.75c5.88,3.17,10.47,7.56,13.77,13.16
		c3.3,5.61,4.95,11.99,4.95,19.14c0,7.15-1.65,13.55-4.95,19.2c-3.3,5.66-7.89,10.07-13.77,13.23c-5.88,3.17-12.53,4.75-19.95,4.75
		C189.48,578.37,182.88,576.79,177,573.62z M212.28,557.6c4.07-4.16,6.11-9.63,6.11-16.42c0-6.79-2.04-12.26-6.11-16.42
		c-4.07-4.16-9.23-6.24-15.47-6.24c-6.24,0-11.38,2.08-15.4,6.24c-4.03,4.16-6.04,9.64-6.04,16.42c0,6.79,2.01,12.26,6.04,16.42
		c4.02,4.16,9.16,6.24,15.4,6.24C203.06,563.85,208.21,561.77,212.28,557.6z"/>
	<path d="M322.75,476.72v100.7h-16.29v-9.36c-2.8,3.44-6.27,6.02-10.38,7.74c-4.12,1.72-8.66,2.58-13.64,2.58
		c-6.97,0-13.23-1.54-18.8-4.61c-5.56-3.07-9.93-7.44-13.1-13.1c-3.17-5.65-4.75-12.15-4.75-19.47c0-7.33,1.58-13.8,4.75-19.41
		c3.17-5.61,7.53-9.95,13.1-13.03c5.56-3.07,11.83-4.61,18.8-4.61c4.79,0,9.18,0.81,13.16,2.44c3.98,1.63,7.37,4.07,10.18,7.33
		v-37.19H322.75z M295.48,561.06c3.26-1.85,5.84-4.5,7.74-7.94c1.9-3.44,2.85-7.42,2.85-11.94c0-4.52-0.95-8.5-2.85-11.94
		c-1.9-3.44-4.48-6.08-7.74-7.94c-3.26-1.85-6.92-2.78-10.99-2.78c-4.07,0-7.74,0.93-10.99,2.78c-3.26,1.85-5.84,4.5-7.74,7.94
		c-1.9,3.44-2.85,7.42-2.85,11.94c0,4.52,0.95,8.51,2.85,11.94c1.9,3.44,4.48,6.09,7.74,7.94c3.26,1.85,6.92,2.78,10.99,2.78
		C288.55,563.85,292.22,562.92,295.48,561.06z"/>
	<path d="M412.87,546.61H356c0.99,5.34,3.6,9.57,7.8,12.69c4.21,3.12,9.43,4.68,15.67,4.68c7.96,0,14.52-2.62,19.68-7.87l9.09,10.45
		c-3.26,3.89-7.38,6.83-12.35,8.82c-4.98,1.99-10.59,2.99-16.83,2.99c-7.96,0-14.97-1.58-21.04-4.75
		c-6.06-3.17-10.74-7.58-14.05-13.23c-3.3-5.65-4.95-12.06-4.95-19.2c0-7.06,1.6-13.41,4.82-19.07c3.21-5.65,7.67-10.06,13.37-13.23
		c5.7-3.17,12.12-4.75,19.27-4.75c7.06,0,13.37,1.56,18.93,4.68c5.56,3.12,9.91,7.51,13.03,13.17c3.12,5.66,4.68,12.19,4.68,19.61
		C413.14,542.77,413.05,544.44,412.87,546.61z M362.72,522.52c-3.76,3.21-6.04,7.49-6.85,12.83h41.12
		c-0.73-5.25-2.94-9.5-6.65-12.76c-3.71-3.26-8.33-4.89-13.84-4.89C371.07,517.7,366.48,519.31,362.72,522.52z"/>
	<path d="M471.36,504.13v16.15c-1.45-0.27-2.76-0.41-3.94-0.41c-6.61,0-11.76,1.92-15.47,5.77c-3.71,3.85-5.56,9.39-5.56,16.62
		v35.15h-16.96v-72.47h16.15v10.59C450.46,507.93,459.05,504.13,471.36,504.13z"/>
	<path d="M486.7,482.42h17.64v95H486.7V482.42z"/>
	<path d="M591.47,512.14c5.52,5.34,8.28,13.25,8.28,23.75v41.53h-16.96v-39.36c0-6.33-1.49-11.11-4.48-14.32
		c-2.99-3.21-7.24-4.82-12.76-4.82c-6.24,0-11.18,1.88-14.79,5.63c-3.62,3.76-5.43,9.16-5.43,16.22v36.64h-16.96v-72.47h16.15v9.36
		c2.8-3.35,6.33-5.88,10.59-7.6c4.25-1.72,9.05-2.58,14.39-2.58C578.62,504.13,585.95,506.8,591.47,512.14z"/>
	<path d="M626.48,576.06c-5.61-1.54-10.09-3.48-13.44-5.84l6.51-12.89c3.26,2.17,7.17,3.91,11.74,5.23
		c4.57,1.31,9.07,1.97,13.5,1.97c10.13,0,15.2-2.67,15.2-8.01c0-2.53-1.29-4.3-3.87-5.29c-2.58-0.99-6.72-1.94-12.42-2.85
		c-5.97-0.9-10.84-1.94-14.59-3.12c-3.76-1.17-7.01-3.23-9.77-6.17c-2.76-2.94-4.14-7.03-4.14-12.28c0-6.87,2.87-12.37,8.62-16.49
		c5.74-4.12,13.5-6.17,23.28-6.17c4.98,0,9.95,0.57,14.93,1.7c4.97,1.13,9.05,2.65,12.21,4.55l-6.51,12.89
		c-6.15-3.62-13.07-5.43-20.76-5.43c-4.98,0-8.75,0.75-11.33,2.24c-2.58,1.49-3.87,3.46-3.87,5.9c0,2.71,1.38,4.64,4.14,5.77
		c2.76,1.13,7.03,2.19,12.83,3.19c5.79,0.91,10.54,1.95,14.25,3.12c3.71,1.18,6.9,3.17,9.57,5.97c2.67,2.81,4,6.79,4,11.94
		c0,6.79-2.94,12.21-8.82,16.29c-5.88,4.07-13.89,6.11-24.02,6.11C637.83,578.37,632.09,577.6,626.48,576.06z"/>
	<path d="M692.03,490.08c-2.08-1.94-3.12-4.36-3.12-7.26c0-2.89,1.04-5.31,3.12-7.26c2.08-1.95,4.66-2.92,7.74-2.92
		c3.07,0,5.65,0.93,7.74,2.78c2.08,1.86,3.12,4.19,3.12,6.99c0,2.99-1.02,5.5-3.05,7.53c-2.04,2.04-4.64,3.05-7.8,3.05
		C696.69,493,694.11,492.03,692.03,490.08z M691.22,504.95h16.96v72.47h-16.96V504.95z"/>
	<path d="M802.36,504.95v61.48c0,25.51-13.03,38.27-39.09,38.27c-6.97,0-13.57-0.88-19.81-2.65c-6.24-1.77-11.4-4.32-15.47-7.67
		l7.6-12.76c3.17,2.62,7.17,4.73,12.01,6.31c4.84,1.58,9.75,2.38,14.72,2.38c7.96,0,13.8-1.81,17.51-5.43
		c3.71-3.62,5.56-9.14,5.56-16.56v-3.8c-2.9,3.17-6.42,5.56-10.58,7.19c-4.16,1.63-8.73,2.44-13.71,2.44
		c-6.88,0-13.1-1.47-18.66-4.41c-5.56-2.94-9.95-7.08-13.16-12.42c-3.21-5.34-4.82-11.44-4.82-18.32c0-6.88,1.61-12.96,4.82-18.25
		c3.21-5.29,7.6-9.39,13.16-12.28c5.56-2.89,11.78-4.34,18.66-4.34c5.25,0,10.02,0.86,14.32,2.58c4.3,1.72,7.89,4.34,10.79,7.87
		v-9.64H802.36z M779.5,554.01c4.12-3.84,6.17-8.84,6.17-15c0-6.06-2.06-10.99-6.17-14.79c-4.12-3.8-9.39-5.7-15.81-5.7
		c-6.51,0-11.83,1.9-15.95,5.7c-4.12,3.8-6.17,8.73-6.17,14.79c0,6.15,2.06,11.15,6.17,15c4.12,3.85,9.43,5.77,15.95,5.77
		C770.11,559.77,775.38,557.85,779.5,554.01z"/>
	<path d="M887.73,512.14c5.52,5.34,8.28,13.25,8.28,23.75v41.53h-16.96v-39.36c0-6.33-1.49-11.11-4.48-14.32
		c-2.99-3.21-7.24-4.82-12.76-4.82c-6.24,0-11.18,1.88-14.79,5.63c-3.62,3.76-5.43,9.16-5.43,16.22v36.64h-16.96v-100.7h16.96v36.64
		c2.8-2.99,6.26-5.27,10.38-6.85c4.12-1.58,8.71-2.38,13.77-2.38C874.88,504.13,882.21,506.8,887.73,512.14z"/>
	<path d="M961.15,573.48c-1.99,1.63-4.41,2.85-7.26,3.66c-2.85,0.81-5.86,1.22-9.02,1.22c-7.96,0-14.11-2.08-18.46-6.24
		c-4.34-4.16-6.51-10.22-6.51-18.19v-34.88h-11.94v-13.57h11.94v-16.56h16.96v16.56h19.41v13.57h-19.41v34.47
		c0,3.53,0.86,6.22,2.58,8.07c1.72,1.85,4.21,2.78,7.46,2.78c3.8,0,6.97-0.99,9.5-2.99L961.15,573.48z"/>
	<path d="M980.28,576.06c-5.61-1.54-10.09-3.48-13.44-5.84l6.51-12.89c3.26,2.17,7.17,3.91,11.74,5.23
		c4.57,1.31,9.07,1.97,13.5,1.97c10.13,0,15.2-2.67,15.2-8.01c0-2.53-1.29-4.3-3.87-5.29c-2.58-0.99-6.72-1.94-12.42-2.85
		c-5.97-0.9-10.84-1.94-14.59-3.12c-3.76-1.17-7.01-3.23-9.77-6.17c-2.76-2.94-4.14-7.03-4.14-12.28c0-6.87,2.87-12.37,8.62-16.49
		c5.74-4.12,13.5-6.17,23.28-6.17c4.98,0,9.95,0.57,14.93,1.7c4.97,1.13,9.05,2.65,12.21,4.55l-6.51,12.89
		c-6.15-3.62-13.07-5.43-20.76-5.43c-4.98,0-8.75,0.75-11.33,2.24c-2.58,1.49-3.87,3.46-3.87,5.9c0,2.71,1.38,4.64,4.14,5.77
		c2.76,1.13,7.03,2.19,12.83,3.19c5.79,0.91,10.54,1.95,14.25,3.12c3.71,1.18,6.9,3.17,9.57,5.97c2.67,2.81,4,6.79,4,11.94
		c0,6.79-2.94,12.21-8.82,16.29c-5.88,4.07-13.89,6.11-24.02,6.11C991.64,578.37,985.89,577.6,980.28,576.06z"/>
</g>
</svg>
