<?xml version="1.0" encoding="utf-8"?>
<!-- Generator: Adobe Illustrator 25.2.1, SVG Export Plug-In . SVG Version: 6.00 Build 0)  -->
<svg version="1.1" id="Camada_1" xmlns="http://www.w3.org/2000/svg" xmlns:xlink="http://www.w3.org/1999/xlink" x="0px" y="0px"
	 viewBox="0 0 1080 1080" style="enable-background:new 0 0 1080 1080;" xml:space="preserve"
	 height="40"
	 width="100"
>
<style type="text/css">
	.st0{fill:#FFFFFF;}
</style>
<g>
	<g>
		<path d="M739.85,207.29c-46.38-19.26-96.66-28.9-150.87-28.9c-52.26,0-100.75,8.66-145.48,25.96
			c-44.74,17.31-83.61,41.98-116.58,73.97c-32.99,32.01-58.46,69.4-76.41,112.18c-17.97,42.78-26.94,89.64-26.94,140.58
			c0,50.94,8.97,97.82,26.94,140.58c17.95,42.78,43.26,80.18,75.92,112.17c32.65,32.01,71.35,56.67,116.09,73.97
			c9.8,3.79,19.81,7.1,29.99,10.02c-0.21-34.9-0.27-76.95-0.18-116.24c-22.21-11.08-42.12-25.12-59.69-42.2
			c-22.87-22.2-40.5-48.33-52.9-78.38c-12.42-30.03-18.61-63.34-18.61-99.92c0-36.57,6.2-69.88,18.61-99.93
			c12.4-30.03,30.03-56.16,52.9-78.37c22.85-22.2,49.63-39.34,80.33-51.43c30.69-12.08,64.66-18.12,101.88-18.12
			c35.91,0,69.56,6.7,100.91,20.08c31.35,13.39,59.42,33.8,84.25,61.23l76.41-73.48C825.09,254.48,786.22,226.56,739.85,207.29z"/>
		<path d="M780.02,696.63c-14.26,16.13-29.6,29.81-46.02,41.08c0.21,36.03,0.25,79.16,0.15,118.88c1.9-0.74,3.82-1.44,5.7-2.23
			c46.37-19.59,85.23-47.66,116.58-84.25L780.02,696.63z"/>
	</g>
	<g>
		<path d="M695.31,595.7c1.79-7.7-1.23-13.78-4.98-19.22c-5.52-7.98-13.24-12.17-23.38-11.08c-6.9,0.74-14.93,6.62-16.83,13.29
			c-2.1,7.39,0.61,13.53,5.91,18.69c0.77,0.75,1.69,1.51,2.69,1.84c10.56,3.5,8.8,13.98,12.07,21.56c0.17,0.39-2.15,2.72-3.21,2.65
			c-29.76-2-48.87-28.3-37.6-55.65c10.19-24.72,42.6-31.21,63.8-17.76c15.17,9.62,22.1,23.6,23.18,40.63
			c0.38,5.96-2.24,12.13-3.65,18.16c-0.41,1.74-1.37,3.35-2.54,6.1c6.49-0.25,11.18-2.52,15.17-5.87
			c9.73-8.15,15.89-18.12,14.31-31.49c-0.43-3.6,0.83-6.34,3.63-8.63c20.3-16.56,22.04-48.35,7.69-67.61
			c-2.4-3.22-2.94-5.84-1.61-9.4c5.81-15.65,3.66-30.66-4.89-44.58c-3.29-5.36-8.38-9.59-12.54-14.44c-1.46-1.7-3.43-3.57-3.72-5.57
			c-2.12-14.64-9.73-25.81-22.82-31.85c-10.39-4.8-18.57-11.02-26.25-19.61c-15.98-17.87-59.24-19.98-73.21,12.81
			c-1.21,2.83-2.04,5.82-3.44,9.86c-0.78-2.34-1.39-3.8-1.74-5.31c-3.94-17.23-19.3-29.28-37.07-29.79
			c-11.6-0.33-22.44,1.47-32.34,7.78c-6.03,3.84-9.74,9.53-13.32,15.51c-1.19,1.99-3.77,4.27-5.86,4.43
			c-15.07,1.13-32.65,17.8-34.09,36.44c-0.12,1.62-1.15,3.72-2.43,4.61c-11.7,8.12-18.67,19.36-21.45,33.06
			c-1.75,8.61-2.02,17.48,1.24,25.92c1.77,4.58,1.08,7.84-1.95,11.93c-8.7,11.76-10.17,25.18-7.21,39.32
			c2.17,10.33,7.14,19.01,14.87,26.05c3.17,2.89,4.62,6.03,4.22,10.31c-1.65,17.41,18.56,38.74,34.27,40.82
			c2.32,0.31,4.74,2.78,6.39,4.83c7.67,9.55,17.73,15.3,29.26,18.54c28.93,8.11,47.65,26.56,54.7,55.64
			c2.39,9.84,1.47,20.5,1.95,30.79c0.18,3.91,0.1,7.84,0.02,11.76c-0.06,2.98,1.05,4.03,4.21,3.97c11.76-0.22,23.52,0.03,35.28-0.22
			c4.34-0.09,5.98,1.38,5.65,5.7c-0.28,3.58-0.11,7.21-0.05,10.81c0.05,2.74-1.1,3.96-3.94,3.94c-19.75-0.14-39.51-0.27-59.27-0.24
			c-4.43,0.01-5.98-1.68-5.9-6.14c0.22-12.54-0.19-25.09,0.08-37.63c0.66-30.18-15.2-47.21-41.07-57.41
			c-22.77-8.98-44.49-19.88-61.56-37.78c-7.69-8.07-14.33-17.47-19.95-27.13c-12.33-21.18-20.18-43.99-22.75-68.61
			c-2.27-21.68,0.83-42.62,5.82-63.61c4.21-17.74,10.93-34.37,20.29-49.84c4.91-8.11,10.96-15.63,17.17-22.84
			c14.9-17.27,32.83-30.86,53.02-41.36c15.24-7.93,31.43-13.07,48.37-16.23c17.92-3.34,36-2.72,53.89-1.84
			c22.54,1.11,44.14,7.71,64.32,17.94c37.13,18.82,64.15,47.57,81.56,85.28c6.83,14.78,10.38,30.58,11.85,46.72
			c1.25,13.7,1.59,27.48,2.18,41.24c0.97,22.6-6.42,43.22-15.52,63.33c-6.17,13.63-14.39,25.99-24.39,37.2
			c-16.89,18.93-45.07,14.03-57.47-3.87c-3.63-5.23-6.73-10.92-9.38-16.72c-2.84-6.19-1.34-11.04,3.35-14.12
			c5.12-3.37,10.01-2.5,15.02,2.63C693.77,594.76,694.3,595.01,695.31,595.7z"/>
		<path d="M732.26,665.17c0,4.16,0.09,8.32-0.02,12.47c-0.16,5.63-0.4,11.26-0.77,16.87c-0.19,2.95-1.91,3.86-4.97,4.29
			c-20.43,2.84-36.05,13.18-39.68,33.49c-1.93,10.76-0.87,22.06-1.02,33.12c-0.08,6.11,0.4,12.23,0.16,18.32
			c-0.58,14.54-0.75,29.15-2.44,43.57c-1.12,9.62-6.79,17.44-15.63,22.25c-2.84,1.55-4.07,3.48-3.82,6.75
			c1.63,21.92-19.37,41.86-40.07,42.2c-13.01,0.21-26.03,0.62-39.03,0.36c-20.32-0.41-42.56-18.8-42.18-42.35
			c0.06-3.7-1.17-6.05-4.45-7.98c-11.5-6.79-17.07-17.11-17.08-30.42c-0.03-24.46-0.53-48.93,0.13-73.37
			c0.65-24.18-15.43-40.34-37.14-45.14c-10.33-2.28-10.2-2.15-10.42-12.79c-0.13-6.38-0.87-12.75-1.28-19.13
			c-0.05-0.71,0.26-1.45,0.51-2.77c4.39,2.35,8.36,4.69,12.51,6.66c9.61,4.57,19.78,8.15,28.85,13.59
			c19.08,11.44,30.22,27.94,29.94,51.16c-0.31,25.24-0.08,50.49-0.07,75.73c0.01,12.25,5.57,17.82,17.77,17.82
			c27.28,0.01,54.56,0.01,81.85,0c12.33,0,17.94-5.53,18-18.26c0.12-26.03-0.15-52.06,0.12-78.08
			c0.23-22.22,11.13-38.45,29.99-49.27c9.34-5.36,19.41-9.43,29.08-14.22c3.3-1.64,6.41-3.68,9.6-5.53
			C731.22,664.74,731.74,664.95,732.26,665.17z M603.24,852.1c0,0.06,0,0.12,0,0.18c-10.96,0-21.92,0.06-32.88-0.03
			c-3.87-0.03-4.86,1.94-4.51,5.35c0.84,8.14,9.16,16.11,17.5,16.22c13,0.17,26,0.19,38.99-0.01c8.98-0.14,16.55-6.98,17.92-15.63
			c0.73-4.61-0.43-6.05-5.07-6.06C624.54,852.08,613.89,852.1,603.24,852.1z"/>
		<path d="M728.26,494.87c2.27-8.07,3.53-16.16,2.02-24.9c-3.68-21.33-25.15-36.97-43.05-39.32c-8.54-1.12-17.37-0.41-26.05-0.02
			c-5.78,0.26-9.91,5.71-8.93,11.57c0.56,3.33,1.8,6.69,3.44,9.66c1.44,2.61,3.5,5.45,7.3,2.35c0.8-0.65,2.42-0.37,3.67-0.39
			c4.54-0.08,9.15,0.36,13.62-0.24c6.69-0.9,12.45,1.11,17.61,4.83c8.04,5.79,13.07,13.74,10.93,23.79
			c-2.1,9.88-8.37,17.03-18.71,19.62c-2.98,0.75-5.75,0.84-8.01-2.1c-3.78-4.94-9.34-6.01-14.52-3.16
			c-5.41,2.97-7.82,8.68-6.06,14.31c2.44,7.8,10.83,14.05,19.53,14.71c17.64,1.35,31.32-5.59,41.67-19.66
			c0.7-0.95,1.15-1.74,2.11-2.82c0.94-1.29,1.2-1.74,2.12-3.86"/>
		<path d="M598.63,514.34c0-16.93,0.16-33.87-0.09-50.8c-0.1-6.95-1.24-13.89-7.27-18.6c-2.06-1.6-4.51-2.8-6.93-3.81
			c-6.71-2.81-11.97-6.77-13.23-14.54c-0.85-5.22,1.97-11.19,6.57-13.42c4.22-2.04,8.45-1.08,11.31,2.65
			c1.52,1.98,2.89,4.09,4.43,6.06c5.53,7.07,14.44,6.96,19.89-0.25c1.04-1.37,2.13-2.79,2.76-4.36c1.49-3.67,3.99-5.37,7.97-5.13
			c4.12,0.25,7.67,1.35,9.85,5.23c4.66,8.29,0.39,20.92-8.92,23.19c-13.58,3.31-17.64,13.04-17.38,24.73
			c0.39,17.86,0.34,35.73,0.53,53.59c0.12,11.71,0.46,23.43,0.45,35.14c0,4.99-0.42,10-1.15,14.93c-0.17,1.15-2.49,2.91-3.62,2.76
			c-1.76-0.22-3.76-1.5-4.88-2.95c-0.78-1-0.28-3.02-0.28-4.59C598.63,547.58,598.64,530.96,598.63,514.34z"/>
		<path d="M580.92,477.55c0.88,3.86,1.76,6.1,1.84,8.37c0.47,13.53,2.59,27.1-0.9,40.55c-2.19,8.43-5.45,16.17-11.72,22.61
			c-7.41,7.61-15.26,14.31-25.48,17.87c-3.37,1.17-5.91,1.01-8.28-1.94c-3.81-4.76-7.92-9.27-11.79-13.98
			c-2.11-2.56-0.7-3.61,1.94-4.59c6.82-2.53,14.15-4.42,20.13-8.32c13.07-8.51,16.52-21.95,14.98-36.61
			c-0.49-4.66,0.15-7.87,3.57-10.73C570.19,486.63,575.12,482.44,580.92,477.55z"/>
		<path d="M483.48,477.55c-0.26-3.95,0.46-23.73,0.74-25.98c1.67-13.43,2.97-15.41,6.06-22.48c3.49-7.98,7.94-15.1,15.14-20.47
			c8.52-6.35,17.33-11.72,27.98-13.62c3.51-0.62,6-0.06,7.87,3.23c3.01,5.3,2.07,2.29,5.15,7.55c1.67,2.86,0.12,5.39-2.64,5.94
			c-7.13,1.42-14.67,2.13-21.2,5.03c-14.25,6.34-18.04,25.36-18.83,40.07c-0.25,4.68,2.03,12.98-1.81,15.26
			C496.38,475.41,489.98,473.64,483.48,477.55z"/>
		<path d="M602.9,788.03c9.86,0,19.72,0.12,29.57-0.06c3.84-0.07,5.44,1.26,5.2,5.17c-0.23,3.74-0.11,7.51-0.05,11.26
			c0.04,2.79-1.24,3.86-4.01,3.84c-19.71-0.14-39.43-0.27-59.14-0.2c-4.42,0.02-6.31-1.48-5.91-6c0.23-2.63-0.01-5.32-0.15-7.97
			c-0.29-5.79-0.15-6.01,5.86-6.03C583.81,788,593.36,788.03,602.9,788.03z"/>
		<path d="M524.95,525.64c-11.49-0.05-19.73-3.43-27.39-8.64c-2.84-1.93-3.2-3.95-1.11-6.61c2.7-3.43,5.36-6.89,7.97-10.39
			c1.44-1.93,2.82-2.43,5.13-1.11c2.41,1.37,5.12,2.63,7.81,2.95c2,0.24,4.74-0.52,6.2-1.86c7.13-6.57,13.63-7.08,18.97-0.88
			c5.93,6.88,5.2,14.17-2.61,21.33C535.43,524.54,530.28,525.7,524.95,525.64z"/>
		<path d="M547.63,622.49c-11.46-0.73-21.96-3.44-29.3-9.1c-15.13-5.66-40.08-36.89-37.84-39.42c2.9-3.26,8.84-5.84,11.64-9.18
			c1.55-1.84,14.56,27.48,33.69,31.67c2.33,1.51,12.97,1.34,15.64,1.82c1.98,0.35,4.76-0.23,6.3-1.49
			c7.51-6.14,14.03-6.25,18.99,0.24c5.52,7.22,4.35,14.45-3.87,21.13C558.16,622.01,552.95,622.87,547.63,622.49z"/>
	</g>
</g>
</svg>
