<svg xmlns="http://www.w3.org/2000/svg" xmlns:xlink="http://www.w3.org/1999/xlink" width="300" zoomAndPan="magnify" viewBox="0 0 224.87999 37.5" height="50" preserveAspectRatio="xMidYMid meet" version="1.0"><path fill="#000000" d="M 44.574219 27.8125 C 43.128906 27.027344 42 25.945312 41.183594 24.5625 C 40.363281 23.179688 39.957031 21.617188 39.957031 19.882812 C 39.957031 18.144531 40.371094 16.585938 41.195312 15.203125 C 42.019531 13.816406 43.15625 12.734375 44.597656 11.949219 C 46.039062 11.164062 47.652344 10.773438 49.441406 10.773438 C 50.890625 10.773438 52.214844 11.027344 53.414062 11.53125 C 54.609375 12.039062 55.621094 12.773438 56.449219 13.734375 L 54.324219 15.734375 C 53.042969 14.347656 51.464844 13.65625 49.59375 13.65625 C 48.382812 13.65625 47.292969 13.925781 46.332031 14.457031 C 45.367188 14.988281 44.621094 15.726562 44.078125 16.667969 C 43.539062 17.613281 43.269531 18.683594 43.269531 19.882812 C 43.269531 21.078125 43.539062 22.148438 44.078125 23.09375 C 44.617188 24.039062 45.367188 24.777344 46.332031 25.308594 C 47.292969 25.839844 48.378906 26.109375 49.59375 26.109375 C 51.464844 26.109375 53.042969 25.410156 54.324219 24.007812 L 56.449219 26.03125 C 55.625 26.992188 54.605469 27.726562 53.402344 28.234375 C 52.195312 28.738281 50.871094 28.992188 49.417969 28.992188 C 47.628906 28.992188 46.015625 28.597656 44.574219 27.8125 Z M 44.574219 27.8125 " fill-opacity="1" fill-rule="nonzero"/><path fill="#000000" d="M 61.179688 28.03125 C 60.085938 27.4375 59.230469 26.617188 58.613281 25.5625 C 57.996094 24.511719 57.691406 23.316406 57.691406 21.984375 C 57.691406 20.652344 57.996094 19.464844 58.613281 18.417969 C 59.226562 17.371094 60.082031 16.550781 61.179688 15.964844 C 62.277344 15.371094 63.507812 15.078125 64.875 15.078125 C 66.257812 15.078125 67.496094 15.371094 68.59375 15.964844 C 69.6875 16.554688 70.542969 17.371094 71.160156 18.417969 C 71.773438 19.460938 72.082031 20.652344 72.082031 21.984375 C 72.082031 23.316406 71.773438 24.511719 71.160156 25.5625 C 70.542969 26.617188 69.6875 27.441406 68.59375 28.03125 C 67.496094 28.621094 66.257812 28.914062 64.875 28.914062 C 63.507812 28.914062 62.277344 28.621094 61.179688 28.03125 Z M 67.757812 25.042969 C 68.515625 24.269531 68.898438 23.25 68.898438 21.984375 C 68.898438 20.71875 68.515625 19.699219 67.757812 18.921875 C 67 18.144531 66.039062 17.757812 64.875 17.757812 C 63.710938 17.757812 62.753906 18.144531 62.003906 18.921875 C 61.253906 19.699219 60.878906 20.71875 60.878906 21.984375 C 60.878906 23.25 61.253906 24.269531 62.003906 25.042969 C 62.753906 25.820312 63.710938 26.207031 64.875 26.207031 C 66.039062 26.207031 67 25.820312 67.757812 25.042969 Z M 67.757812 25.042969 " fill-opacity="1" fill-rule="nonzero"/><path fill="#000000" d="M 88.351562 9.96875 L 88.351562 28.738281 L 85.3125 28.738281 L 85.3125 26.992188 C 84.792969 27.632812 84.144531 28.117188 83.378906 28.4375 C 82.609375 28.757812 81.765625 28.917969 80.835938 28.917969 C 79.535156 28.917969 78.371094 28.628906 77.332031 28.058594 C 76.292969 27.484375 75.480469 26.671875 74.890625 25.617188 C 74.296875 24.5625 74.003906 23.351562 74.003906 21.988281 C 74.003906 20.621094 74.296875 19.414062 74.890625 18.367188 C 75.480469 17.324219 76.292969 16.511719 77.332031 15.9375 C 78.367188 15.367188 79.535156 15.082031 80.835938 15.082031 C 81.730469 15.082031 82.546875 15.230469 83.289062 15.535156 C 84.03125 15.839844 84.664062 16.292969 85.1875 16.902344 L 85.1875 9.96875 Z M 83.265625 25.6875 C 83.875 25.34375 84.355469 24.847656 84.710938 24.207031 C 85.0625 23.566406 85.242188 22.824219 85.242188 21.984375 C 85.242188 21.140625 85.0625 20.398438 84.710938 19.757812 C 84.355469 19.117188 83.875 18.625 83.265625 18.277344 C 82.660156 17.933594 81.976562 17.757812 81.21875 17.757812 C 80.460938 17.757812 79.773438 17.933594 79.167969 18.277344 C 78.5625 18.621094 78.082031 19.117188 77.726562 19.757812 C 77.371094 20.398438 77.195312 21.140625 77.195312 21.984375 C 77.195312 22.824219 77.371094 23.570312 77.726562 24.207031 C 78.082031 24.847656 78.5625 25.34375 79.167969 25.6875 C 79.777344 26.03125 80.460938 26.207031 81.21875 26.207031 C 81.976562 26.207031 82.660156 26.035156 83.265625 25.6875 Z M 83.265625 25.6875 " fill-opacity="1" fill-rule="nonzero"/><path fill="#000000" d="M 105.148438 22.996094 L 94.546875 22.996094 C 94.730469 23.988281 95.21875 24.777344 96 25.359375 C 96.785156 25.941406 97.757812 26.234375 98.921875 26.234375 C 100.40625 26.234375 101.628906 25.746094 102.589844 24.765625 L 104.285156 26.714844 C 103.675781 27.4375 102.910156 27.988281 101.984375 28.359375 C 101.054688 28.730469 100.007812 28.914062 98.847656 28.914062 C 97.363281 28.914062 96.054688 28.621094 94.925781 28.03125 C 93.792969 27.4375 92.921875 26.617188 92.304688 25.5625 C 91.691406 24.511719 91.382812 23.316406 91.382812 21.984375 C 91.382812 20.667969 91.679688 19.484375 92.28125 18.429688 C 92.878906 17.375 93.710938 16.554688 94.773438 15.964844 C 95.835938 15.371094 97.03125 15.078125 98.363281 15.078125 C 99.679688 15.078125 100.855469 15.367188 101.894531 15.949219 C 102.929688 16.53125 103.742188 17.351562 104.324219 18.40625 C 104.902344 19.460938 105.195312 20.679688 105.195312 22.0625 C 105.199219 22.277344 105.183594 22.589844 105.148438 22.996094 Z M 95.800781 18.503906 C 95.097656 19.101562 94.675781 19.902344 94.523438 20.894531 L 102.1875 20.894531 C 102.050781 19.917969 101.640625 19.125 100.949219 18.515625 C 100.257812 17.910156 99.394531 17.605469 98.367188 17.605469 C 97.355469 17.605469 96.5 17.90625 95.800781 18.503906 Z M 95.800781 18.503906 " fill-opacity="1" fill-rule="nonzero"/><path fill="#000000" d="M 116.050781 15.078125 L 116.050781 18.085938 C 115.78125 18.035156 115.535156 18.011719 115.316406 18.011719 C 114.085938 18.011719 113.125 18.367188 112.433594 19.085938 C 111.742188 19.804688 111.398438 20.835938 111.398438 22.183594 L 111.398438 28.734375 L 108.234375 28.734375 L 108.234375 15.226562 L 111.246094 15.226562 L 111.246094 17.203125 C 112.15625 15.785156 113.757812 15.078125 116.050781 15.078125 Z M 116.050781 15.078125 " fill-opacity="1" fill-rule="nonzero"/><path fill="#000000" d="M 118.910156 11.03125 L 122.199219 11.03125 L 122.199219 28.738281 L 118.910156 28.738281 Z M 118.910156 11.03125 " fill-opacity="1" fill-rule="nonzero"/><path fill="#000000" d="M 138.441406 16.570312 C 139.46875 17.566406 139.984375 19.039062 139.984375 20.996094 L 139.984375 28.738281 L 136.820312 28.738281 L 136.820312 21.402344 C 136.820312 20.222656 136.542969 19.332031 135.988281 18.730469 C 135.429688 18.132812 134.636719 17.832031 133.609375 17.832031 C 132.445312 17.832031 131.523438 18.183594 130.851562 18.882812 C 130.175781 19.582031 129.839844 20.589844 129.839844 21.90625 L 129.839844 28.734375 L 126.679688 28.734375 L 126.679688 15.226562 L 129.6875 15.226562 L 129.6875 16.972656 C 130.210938 16.347656 130.867188 15.875 131.664062 15.554688 C 132.453125 15.234375 133.347656 15.074219 134.34375 15.074219 C 136.042969 15.078125 137.410156 15.574219 138.441406 16.570312 Z M 138.441406 16.570312 " fill-opacity="1" fill-rule="nonzero"/><path fill="#000000" d="M 144.964844 28.484375 C 143.921875 28.199219 143.085938 27.835938 142.460938 27.394531 L 143.675781 24.992188 C 144.28125 25.398438 145.011719 25.722656 145.863281 25.96875 C 146.714844 26.210938 147.554688 26.335938 148.378906 26.335938 C 150.265625 26.335938 151.210938 25.835938 151.210938 24.84375 C 151.210938 24.371094 150.972656 24.039062 150.492188 23.855469 C 150.011719 23.671875 149.238281 23.496094 148.175781 23.324219 C 147.0625 23.15625 146.15625 22.964844 145.457031 22.742188 C 144.753906 22.523438 144.148438 22.140625 143.636719 21.59375 C 143.121094 21.046875 142.863281 20.28125 142.863281 19.304688 C 142.863281 18.023438 143.398438 17 144.46875 16.230469 C 145.539062 15.460938 146.988281 15.078125 148.808594 15.078125 C 149.738281 15.078125 150.664062 15.1875 151.59375 15.398438 C 152.519531 15.609375 153.28125 15.890625 153.867188 16.246094 L 152.65625 18.648438 C 151.507812 17.972656 150.21875 17.636719 148.785156 17.636719 C 147.855469 17.636719 147.15625 17.777344 146.671875 18.054688 C 146.191406 18.332031 145.953125 18.699219 145.953125 19.152344 C 145.953125 19.65625 146.210938 20.019531 146.722656 20.230469 C 147.238281 20.4375 148.035156 20.636719 149.117188 20.824219 C 150.195312 20.992188 151.078125 21.1875 151.773438 21.40625 C 152.464844 21.625 153.058594 21.996094 153.554688 22.515625 C 154.054688 23.042969 154.300781 23.785156 154.300781 24.742188 C 154.300781 26.007812 153.753906 27.019531 152.65625 27.78125 C 151.5625 28.539062 150.066406 28.917969 148.179688 28.917969 C 147.082031 28.914062 146.011719 28.769531 144.964844 28.484375 Z M 144.964844 28.484375 " fill-opacity="1" fill-rule="nonzero"/><path fill="#000000" d="M 157.183594 12.457031 C 156.796875 12.097656 156.601562 11.644531 156.601562 11.105469 C 156.601562 10.566406 156.796875 10.113281 157.183594 9.75 C 157.574219 9.386719 158.054688 9.207031 158.628906 9.207031 C 159.199219 9.207031 159.679688 9.378906 160.070312 9.726562 C 160.457031 10.070312 160.652344 10.503906 160.652344 11.027344 C 160.652344 11.585938 160.460938 12.054688 160.082031 12.429688 C 159.703125 12.8125 159.21875 13 158.628906 13 C 158.054688 13 157.574219 12.820312 157.183594 12.457031 Z M 157.035156 15.230469 L 160.195312 15.230469 L 160.195312 28.738281 L 157.035156 28.738281 Z M 157.035156 15.230469 " fill-opacity="1" fill-rule="nonzero"/><path fill="#000000" d="M 177.75 15.230469 L 177.75 26.6875 C 177.75 31.445312 175.320312 33.824219 170.464844 33.824219 C 169.164062 33.824219 167.933594 33.660156 166.769531 33.328125 C 165.609375 33 164.644531 32.523438 163.886719 31.898438 L 165.304688 29.519531 C 165.894531 30.007812 166.640625 30.402344 167.542969 30.695312 C 168.445312 30.992188 169.359375 31.140625 170.285156 31.140625 C 171.769531 31.140625 172.859375 30.804688 173.550781 30.128906 C 174.242188 29.453125 174.585938 28.425781 174.585938 27.042969 L 174.585938 26.332031 C 174.046875 26.925781 173.390625 27.371094 172.613281 27.671875 C 171.839844 27.976562 170.988281 28.128906 170.058594 28.128906 C 168.777344 28.128906 167.617188 27.855469 166.582031 27.304688 C 165.542969 26.757812 164.726562 25.988281 164.128906 24.992188 C 163.53125 23.996094 163.230469 22.859375 163.230469 21.578125 C 163.230469 20.292969 163.53125 19.160156 164.128906 18.175781 C 164.726562 17.1875 165.542969 16.425781 166.582031 15.886719 C 167.617188 15.347656 168.777344 15.078125 170.058594 15.078125 C 171.039062 15.078125 171.925781 15.238281 172.730469 15.558594 C 173.53125 15.878906 174.199219 16.367188 174.738281 17.023438 L 174.738281 15.226562 L 177.75 15.226562 Z M 173.488281 24.375 C 174.257812 23.660156 174.640625 22.726562 174.640625 21.578125 C 174.640625 20.449219 174.253906 19.53125 173.488281 18.820312 C 172.722656 18.113281 171.738281 17.757812 170.542969 17.757812 C 169.328125 17.757812 168.335938 18.113281 167.570312 18.820312 C 166.800781 19.53125 166.417969 20.449219 166.417969 21.578125 C 166.417969 22.722656 166.804688 23.65625 167.570312 24.375 C 168.335938 25.09375 169.328125 25.449219 170.542969 25.449219 C 171.738281 25.449219 172.722656 25.089844 173.488281 24.375 Z M 173.488281 24.375 " fill-opacity="1" fill-rule="nonzero"/><path fill="#000000" d="M 193.664062 16.570312 C 194.691406 17.566406 195.207031 19.039062 195.207031 20.996094 L 195.207031 28.738281 L 192.046875 28.738281 L 192.046875 21.402344 C 192.046875 20.222656 191.769531 19.332031 191.210938 18.730469 C 190.652344 18.132812 189.859375 17.832031 188.832031 17.832031 C 187.667969 17.832031 186.75 18.183594 186.074219 18.882812 C 185.402344 19.582031 185.0625 20.589844 185.0625 21.90625 L 185.0625 28.734375 L 181.902344 28.734375 L 181.902344 9.964844 L 185.0625 9.964844 L 185.0625 16.796875 C 185.585938 16.238281 186.230469 15.8125 187 15.519531 C 187.765625 15.222656 188.621094 15.074219 189.566406 15.074219 C 191.269531 15.078125 192.636719 15.574219 193.664062 16.570312 Z M 193.664062 16.570312 " fill-opacity="1" fill-rule="nonzero"/><path fill="#000000" d="M 207.351562 28.003906 C 206.980469 28.308594 206.527344 28.535156 205.996094 28.6875 C 205.464844 28.835938 204.902344 28.914062 204.316406 28.914062 C 202.832031 28.914062 201.683594 28.523438 200.875 27.75 C 200.066406 26.972656 199.660156 25.84375 199.660156 24.359375 L 199.660156 17.859375 L 197.433594 17.859375 L 197.433594 15.328125 L 199.660156 15.328125 L 199.660156 12.242188 L 202.820312 12.242188 L 202.820312 15.328125 L 206.441406 15.328125 L 206.441406 17.859375 L 202.820312 17.859375 L 202.820312 24.28125 C 202.820312 24.941406 202.980469 25.441406 203.304688 25.785156 C 203.625 26.132812 204.085938 26.304688 204.695312 26.304688 C 205.402344 26.304688 205.992188 26.121094 206.464844 25.746094 Z M 207.351562 28.003906 " fill-opacity="1" fill-rule="nonzero"/><path fill="#000000" d="M 210.914062 28.484375 C 209.871094 28.199219 209.035156 27.835938 208.410156 27.394531 L 209.625 24.992188 C 210.230469 25.398438 210.960938 25.722656 211.8125 25.96875 C 212.664062 26.210938 213.503906 26.335938 214.328125 26.335938 C 216.21875 26.335938 217.160156 25.835938 217.160156 24.84375 C 217.160156 24.371094 216.921875 24.039062 216.441406 23.855469 C 215.960938 23.671875 215.1875 23.496094 214.125 23.324219 C 213.011719 23.15625 212.105469 22.964844 211.40625 22.742188 C 210.703125 22.523438 210.097656 22.140625 209.585938 21.59375 C 209.070312 21.046875 208.8125 20.28125 208.8125 19.304688 C 208.8125 18.023438 209.347656 17 210.417969 16.230469 C 211.488281 15.460938 212.9375 15.078125 214.757812 15.078125 C 215.6875 15.078125 216.613281 15.1875 217.542969 15.398438 C 218.46875 15.609375 219.230469 15.890625 219.816406 16.246094 L 218.605469 18.648438 C 217.457031 17.972656 216.167969 17.636719 214.734375 17.636719 C 213.804688 17.636719 213.105469 17.777344 212.621094 18.054688 C 212.140625 18.332031 211.902344 18.699219 211.902344 19.152344 C 211.902344 19.65625 212.160156 20.019531 212.671875 20.230469 C 213.1875 20.4375 213.984375 20.636719 215.066406 20.824219 C 216.144531 20.992188 217.03125 21.1875 217.722656 21.40625 C 218.414062 21.625 219.007812 21.996094 219.503906 22.515625 C 220.003906 23.042969 220.25 23.785156 220.25 24.742188 C 220.25 26.007812 219.703125 27.019531 218.605469 27.78125 C 217.511719 28.539062 216.015625 28.917969 214.128906 28.917969 C 213.03125 28.914062 211.960938 28.769531 210.914062 28.484375 Z M 210.914062 28.484375 " fill-opacity="1" fill-rule="nonzero"/><path fill="#000000" d="M 33.179688 2.011719 C 30.890625 1.058594 28.410156 0.582031 25.734375 0.582031 C 23.15625 0.582031 20.765625 1.011719 18.558594 1.863281 C 16.347656 2.71875 14.429688 3.9375 12.804688 5.515625 C 11.175781 7.09375 9.921875 8.9375 9.035156 11.050781 C 8.148438 13.160156 7.707031 15.472656 7.707031 17.984375 C 7.707031 20.5 8.148438 22.8125 9.035156 24.921875 C 9.921875 27.035156 11.167969 28.878906 12.78125 30.457031 C 14.390625 32.035156 16.300781 33.253906 18.507812 34.105469 C 18.992188 34.292969 19.484375 34.457031 19.988281 34.601562 C 19.976562 32.878906 19.976562 30.804688 19.980469 28.867188 C 18.882812 28.320312 17.902344 27.625 17.035156 26.785156 C 15.90625 25.6875 15.035156 24.398438 14.425781 22.917969 C 13.8125 21.433594 13.503906 19.792969 13.503906 17.984375 C 13.503906 16.183594 13.8125 14.539062 14.425781 13.054688 C 15.035156 11.574219 15.90625 10.285156 17.035156 9.1875 C 18.160156 8.09375 19.484375 7.246094 20.996094 6.652344 C 22.511719 6.054688 24.1875 5.757812 26.023438 5.757812 C 27.796875 5.757812 29.457031 6.085938 31.003906 6.746094 C 32.550781 7.410156 33.9375 8.414062 35.160156 9.769531 L 38.929688 6.144531 C 37.386719 4.339844 35.46875 2.960938 33.179688 2.011719 Z M 33.179688 2.011719 " fill-opacity="1" fill-rule="nonzero"/><path fill="#000000" d="M 35.160156 26.15625 C 34.457031 26.949219 33.699219 27.625 32.890625 28.183594 C 32.902344 29.960938 32.902344 32.085938 32.898438 34.046875 C 32.992188 34.011719 33.085938 33.976562 33.179688 33.9375 C 35.46875 32.972656 37.386719 31.585938 38.933594 29.78125 Z M 35.160156 26.15625 " fill-opacity="1" fill-rule="nonzero"/><path fill="#000000" d="M 30.980469 21.175781 C 31.070312 20.792969 30.921875 20.496094 30.734375 20.226562 C 30.464844 19.832031 30.082031 19.625 29.582031 19.679688 C 29.242188 19.714844 28.847656 20.007812 28.753906 20.335938 C 28.648438 20.699219 28.78125 21.003906 29.042969 21.257812 C 29.082031 21.292969 29.128906 21.332031 29.175781 21.347656 C 29.699219 21.519531 29.609375 22.039062 29.773438 22.414062 C 29.78125 22.429688 29.664062 22.546875 29.613281 22.542969 C 28.144531 22.445312 27.203125 21.148438 27.757812 19.796875 C 28.261719 18.578125 29.859375 18.257812 30.90625 18.921875 C 31.65625 19.394531 31.996094 20.085938 32.050781 20.925781 C 32.070312 21.21875 31.941406 21.523438 31.871094 21.820312 C 31.851562 21.90625 31.800781 21.988281 31.746094 22.121094 C 32.066406 22.109375 32.296875 22 32.492188 21.832031 C 32.972656 21.429688 33.277344 20.9375 33.199219 20.277344 C 33.179688 20.101562 33.238281 19.964844 33.378906 19.851562 C 34.378906 19.035156 34.464844 17.46875 33.757812 16.515625 C 33.640625 16.359375 33.613281 16.230469 33.679688 16.054688 C 33.964844 15.28125 33.859375 14.539062 33.4375 13.855469 C 33.273438 13.589844 33.023438 13.378906 32.816406 13.140625 C 32.746094 13.058594 32.648438 12.964844 32.636719 12.867188 C 32.53125 12.144531 32.15625 11.59375 31.507812 11.296875 C 30.996094 11.058594 30.59375 10.75 30.214844 10.328125 C 29.425781 9.445312 27.289062 9.339844 26.601562 10.960938 C 26.542969 11.097656 26.5 11.246094 26.429688 11.445312 C 26.394531 11.332031 26.363281 11.257812 26.34375 11.183594 C 26.152344 10.332031 25.394531 9.738281 24.515625 9.714844 C 23.945312 9.699219 23.410156 9.785156 22.921875 10.097656 C 22.625 10.289062 22.441406 10.566406 22.261719 10.863281 C 22.203125 10.960938 22.078125 11.074219 21.972656 11.082031 C 21.230469 11.136719 20.363281 11.960938 20.292969 12.878906 C 20.285156 12.960938 20.234375 13.0625 20.171875 13.105469 C 19.59375 13.507812 19.25 14.0625 19.113281 14.738281 C 19.027344 15.164062 19.015625 15.601562 19.175781 16.015625 C 19.261719 16.242188 19.230469 16.40625 19.078125 16.605469 C 18.648438 17.1875 18.578125 17.847656 18.722656 18.546875 C 18.832031 19.054688 19.074219 19.484375 19.457031 19.832031 C 19.613281 19.972656 19.683594 20.128906 19.664062 20.339844 C 19.582031 21.199219 20.582031 22.25 21.355469 22.355469 C 21.46875 22.371094 21.589844 22.492188 21.671875 22.59375 C 22.050781 23.0625 22.546875 23.347656 23.113281 23.507812 C 24.542969 23.90625 25.464844 24.816406 25.8125 26.253906 C 25.933594 26.738281 25.886719 27.265625 25.910156 27.773438 C 25.917969 27.964844 25.914062 28.160156 25.910156 28.351562 C 25.910156 28.5 25.964844 28.550781 26.121094 28.546875 C 26.699219 28.539062 27.28125 28.550781 27.859375 28.539062 C 28.074219 28.53125 28.15625 28.605469 28.140625 28.820312 C 28.125 28.996094 28.132812 29.175781 28.136719 29.351562 C 28.140625 29.488281 28.082031 29.546875 27.941406 29.546875 C 26.96875 29.539062 25.992188 29.535156 25.015625 29.535156 C 24.796875 29.535156 24.722656 29.453125 24.726562 29.230469 C 24.738281 28.613281 24.71875 27.992188 24.730469 27.375 C 24.761719 25.886719 23.980469 25.046875 22.703125 24.542969 C 21.582031 24.097656 20.507812 23.5625 19.667969 22.679688 C 19.285156 22.28125 18.960938 21.816406 18.683594 21.339844 C 18.074219 20.292969 17.6875 19.167969 17.558594 17.953125 C 17.449219 16.882812 17.601562 15.851562 17.847656 14.816406 C 18.054688 13.941406 18.386719 13.121094 18.847656 12.355469 C 19.089844 11.957031 19.386719 11.585938 19.695312 11.230469 C 20.429688 10.378906 21.316406 9.707031 22.3125 9.1875 C 23.0625 8.796875 23.863281 8.542969 24.699219 8.386719 C 25.582031 8.222656 26.472656 8.253906 27.355469 8.296875 C 28.46875 8.351562 29.535156 8.675781 30.53125 9.183594 C 32.363281 10.109375 33.695312 11.53125 34.554688 13.390625 C 34.890625 14.121094 35.066406 14.898438 35.140625 15.695312 C 35.199219 16.371094 35.21875 17.050781 35.246094 17.730469 C 35.292969 18.84375 34.929688 19.863281 34.480469 20.855469 C 34.175781 21.527344 33.769531 22.136719 33.277344 22.691406 C 32.445312 23.625 31.054688 23.382812 30.441406 22.5 C 30.261719 22.242188 30.109375 21.960938 29.980469 21.675781 C 29.839844 21.371094 29.914062 21.128906 30.144531 20.976562 C 30.398438 20.8125 30.636719 20.855469 30.886719 21.109375 C 30.90625 21.128906 30.933594 21.140625 30.980469 21.175781 Z M 30.980469 21.175781 " fill-opacity="1" fill-rule="nonzero"/><path fill="#000000" d="M 32.804688 24.601562 C 32.804688 24.808594 32.808594 25.011719 32.804688 25.21875 C 32.796875 25.496094 32.785156 25.773438 32.765625 26.050781 C 32.757812 26.195312 32.671875 26.242188 32.519531 26.261719 C 31.511719 26.402344 30.742188 26.914062 30.5625 27.914062 C 30.46875 28.445312 30.519531 29.003906 30.511719 29.546875 C 30.507812 29.851562 30.53125 30.152344 30.519531 30.453125 C 30.492188 31.171875 30.484375 31.890625 30.398438 32.601562 C 30.34375 33.078125 30.066406 33.460938 29.628906 33.699219 C 29.488281 33.777344 29.429688 33.871094 29.441406 34.035156 C 29.519531 35.113281 28.484375 36.097656 27.464844 36.117188 C 26.820312 36.125 26.179688 36.144531 25.539062 36.132812 C 24.535156 36.113281 23.4375 35.207031 23.457031 34.042969 C 23.460938 33.859375 23.398438 33.746094 23.238281 33.648438 C 22.667969 33.316406 22.394531 32.804688 22.394531 32.148438 C 22.390625 30.941406 22.367188 29.734375 22.398438 28.527344 C 22.433594 27.335938 21.640625 26.539062 20.566406 26.300781 C 20.058594 26.1875 20.0625 26.195312 20.054688 25.671875 C 20.046875 25.355469 20.011719 25.042969 19.992188 24.726562 C 19.988281 24.691406 20.003906 24.65625 20.015625 24.589844 C 20.230469 24.707031 20.429688 24.820312 20.632812 24.917969 C 21.105469 25.144531 21.609375 25.320312 22.054688 25.589844 C 22.996094 26.152344 23.546875 26.96875 23.535156 28.113281 C 23.519531 29.359375 23.53125 30.605469 23.53125 31.851562 C 23.53125 32.453125 23.804688 32.730469 24.40625 32.730469 C 25.753906 32.730469 27.097656 32.730469 28.445312 32.730469 C 29.054688 32.730469 29.332031 32.457031 29.332031 31.828125 C 29.339844 30.542969 29.328125 29.257812 29.339844 27.976562 C 29.351562 26.878906 29.890625 26.078125 30.820312 25.542969 C 31.28125 25.28125 31.777344 25.078125 32.253906 24.84375 C 32.417969 24.761719 32.570312 24.660156 32.726562 24.570312 C 32.753906 24.582031 32.78125 24.589844 32.804688 24.601562 Z M 26.4375 33.824219 C 26.4375 33.828125 26.4375 33.832031 26.4375 33.835938 C 25.898438 33.835938 25.355469 33.835938 24.816406 33.832031 C 24.625 33.832031 24.578125 33.929688 24.59375 34.097656 C 24.636719 34.5 25.046875 34.890625 25.457031 34.898438 C 26.097656 34.90625 26.742188 34.90625 27.382812 34.898438 C 27.824219 34.890625 28.199219 34.554688 28.265625 34.125 C 28.300781 33.898438 28.246094 33.828125 28.015625 33.828125 C 27.488281 33.824219 26.964844 33.824219 26.4375 33.824219 Z M 26.4375 33.824219 " fill-opacity="1" fill-rule="nonzero"/><path fill="#000000" d="M 32.609375 16.199219 C 32.71875 15.800781 32.78125 15.402344 32.707031 14.972656 C 32.527344 13.917969 31.464844 13.148438 30.582031 13.03125 C 30.160156 12.976562 29.726562 13.011719 29.296875 13.03125 C 29.011719 13.042969 28.808594 13.3125 28.855469 13.601562 C 28.886719 13.765625 28.945312 13.929688 29.027344 14.078125 C 29.097656 14.207031 29.199219 14.347656 29.386719 14.191406 C 29.425781 14.160156 29.507812 14.175781 29.566406 14.175781 C 29.792969 14.171875 30.019531 14.191406 30.238281 14.164062 C 30.570312 14.117188 30.855469 14.21875 31.109375 14.402344 C 31.503906 14.6875 31.753906 15.078125 31.648438 15.574219 C 31.542969 16.0625 31.234375 16.414062 30.726562 16.542969 C 30.578125 16.578125 30.441406 16.582031 30.328125 16.4375 C 30.144531 16.195312 29.871094 16.140625 29.613281 16.28125 C 29.347656 16.429688 29.226562 16.710938 29.316406 16.988281 C 29.433594 17.375 29.847656 17.683594 30.277344 17.714844 C 31.148438 17.78125 31.824219 17.4375 32.335938 16.746094 C 32.367188 16.699219 32.390625 16.660156 32.4375 16.605469 C 32.484375 16.542969 32.496094 16.519531 32.542969 16.414062 " fill-opacity="1" fill-rule="nonzero"/><path fill="#000000" d="M 26.210938 17.160156 C 26.210938 16.324219 26.21875 15.488281 26.207031 14.652344 C 26.203125 14.3125 26.144531 13.96875 25.847656 13.734375 C 25.746094 13.65625 25.625 13.597656 25.507812 13.546875 C 25.175781 13.410156 24.914062 13.214844 24.855469 12.832031 C 24.8125 12.574219 24.949219 12.277344 25.175781 12.167969 C 25.386719 12.066406 25.59375 12.113281 25.734375 12.300781 C 25.8125 12.398438 25.878906 12.5 25.953125 12.597656 C 26.226562 12.945312 26.667969 12.941406 26.9375 12.585938 C 26.988281 12.519531 27.039062 12.449219 27.070312 12.371094 C 27.144531 12.191406 27.269531 12.105469 27.464844 12.117188 C 27.667969 12.128906 27.84375 12.183594 27.953125 12.375 C 28.179688 12.785156 27.96875 13.40625 27.511719 13.519531 C 26.839844 13.683594 26.640625 14.164062 26.652344 14.738281 C 26.671875 15.621094 26.671875 16.503906 26.679688 17.382812 C 26.6875 17.960938 26.703125 18.539062 26.703125 19.117188 C 26.703125 19.363281 26.679688 19.613281 26.644531 19.855469 C 26.636719 19.910156 26.523438 20 26.464844 19.992188 C 26.378906 19.980469 26.28125 19.917969 26.226562 19.84375 C 26.1875 19.796875 26.210938 19.695312 26.210938 19.617188 C 26.210938 18.800781 26.210938 17.980469 26.210938 17.160156 Z M 26.210938 17.160156 " fill-opacity="1" fill-rule="nonzero"/><path fill="#000000" d="M 25.335938 15.34375 C 25.382812 15.535156 25.425781 15.644531 25.429688 15.757812 C 25.453125 16.425781 25.554688 17.09375 25.382812 17.757812 C 25.277344 18.175781 25.113281 18.554688 24.804688 18.875 C 24.441406 19.25 24.050781 19.582031 23.546875 19.757812 C 23.382812 19.8125 23.257812 19.804688 23.140625 19.660156 C 22.953125 19.425781 22.75 19.203125 22.558594 18.96875 C 22.453125 18.84375 22.523438 18.792969 22.652344 18.742188 C 22.992188 18.621094 23.351562 18.527344 23.648438 18.332031 C 24.292969 17.914062 24.460938 17.25 24.386719 16.527344 C 24.363281 16.296875 24.394531 16.140625 24.5625 15.996094 C 24.808594 15.792969 25.050781 15.585938 25.335938 15.34375 Z M 25.335938 15.34375 " fill-opacity="1" fill-rule="nonzero"/><path fill="#000000" d="M 20.53125 15.34375 C 20.515625 15.148438 20.550781 14.175781 20.566406 14.0625 C 20.648438 13.398438 20.710938 13.300781 20.863281 12.953125 C 21.039062 12.558594 21.257812 12.207031 21.613281 11.945312 C 22.03125 11.628906 22.46875 11.367188 22.992188 11.273438 C 23.167969 11.242188 23.289062 11.269531 23.382812 11.429688 C 23.53125 11.691406 23.484375 11.542969 23.636719 11.804688 C 23.71875 11.945312 23.640625 12.070312 23.503906 12.097656 C 23.152344 12.167969 22.78125 12.203125 22.457031 12.34375 C 21.753906 12.65625 21.570312 13.597656 21.53125 14.320312 C 21.515625 14.554688 21.628906 14.960938 21.441406 15.074219 C 21.167969 15.238281 20.851562 15.152344 20.53125 15.34375 Z M 20.53125 15.34375 " fill-opacity="1" fill-rule="nonzero"/><path fill="#000000" d="M 26.421875 30.664062 C 26.910156 30.664062 27.394531 30.671875 27.882812 30.660156 C 28.070312 30.660156 28.148438 30.722656 28.136719 30.917969 C 28.125 31.101562 28.132812 31.289062 28.136719 31.472656 C 28.136719 31.609375 28.074219 31.664062 27.9375 31.660156 C 26.964844 31.65625 25.992188 31.648438 25.019531 31.652344 C 24.800781 31.652344 24.707031 31.578125 24.726562 31.355469 C 24.738281 31.226562 24.726562 31.09375 24.71875 30.960938 C 24.707031 30.675781 24.714844 30.667969 25.007812 30.664062 C 25.480469 30.664062 25.953125 30.664062 26.421875 30.664062 Z M 26.421875 30.664062 " fill-opacity="1" fill-rule="nonzero"/><path fill="#000000" d="M 22.574219 17.71875 C 22.007812 17.714844 21.601562 17.546875 21.222656 17.292969 C 21.085938 17.195312 21.066406 17.097656 21.167969 16.964844 C 21.304688 16.796875 21.433594 16.625 21.5625 16.453125 C 21.632812 16.359375 21.703125 16.332031 21.816406 16.398438 C 21.933594 16.464844 22.070312 16.527344 22.203125 16.542969 C 22.300781 16.554688 22.433594 16.519531 22.507812 16.453125 C 22.859375 16.128906 23.179688 16.101562 23.441406 16.410156 C 23.734375 16.746094 23.699219 17.109375 23.316406 17.460938 C 23.09375 17.664062 22.839844 17.722656 22.574219 17.71875 Z M 22.574219 17.71875 " fill-opacity="1" fill-rule="nonzero"/><path fill="#000000" d="M 23.695312 22.496094 C 23.128906 22.460938 22.613281 22.328125 22.25 22.046875 C 21.503906 21.769531 20.273438 20.226562 20.382812 20.101562 C 20.523438 19.941406 20.816406 19.8125 20.957031 19.648438 C 21.03125 19.558594 21.675781 21.003906 22.617188 21.210938 C 22.734375 21.285156 23.257812 21.277344 23.390625 21.300781 C 23.488281 21.320312 23.625 21.289062 23.703125 21.230469 C 24.070312 20.925781 24.394531 20.921875 24.636719 21.242188 C 24.910156 21.597656 24.851562 21.953125 24.449219 22.28125 C 24.214844 22.472656 23.957031 22.515625 23.695312 22.496094 Z M 23.695312 22.496094 " fill-opacity="1" fill-rule="nonzero"/></svg>