<svg xmlns="http://www.w3.org/2000/svg" xmlns:xlink="http://www.w3.org/1999/xlink" width="100" zoomAndPan="magnify" viewBox="0 0 75 30.000001" height="40" preserveAspectRatio="xMidYMid meet" version="1.0"><defs><clipPath id="fd124fe7e5"><path d="M 4.550781 0 L 30 0 L 30 28 L 4.550781 28 Z M 4.550781 0 " clip-rule="nonzero"/></clipPath><clipPath id="392ec2dba9"><path d="M 67 13 L 70.597656 13 L 70.597656 17 L 67 17 Z M 67 13 " clip-rule="nonzero"/></clipPath></defs><g clip-path="url(#fd124fe7e5)"><path fill="#000000" d="M 25.289062 1.371094 C 23.445312 0.605469 21.445312 0.222656 19.289062 0.222656 C 17.207031 0.222656 15.28125 0.566406 13.5 1.253906 C 11.71875 1.941406 10.171875 2.925781 8.859375 4.199219 C 7.546875 5.472656 6.535156 6.957031 5.820312 8.660156 C 5.105469 10.363281 4.75 12.226562 4.75 14.253906 C 4.75 16.28125 5.105469 18.144531 5.820312 19.847656 C 6.535156 21.546875 7.542969 23.035156 8.84375 24.308594 C 10.140625 25.582031 11.679688 26.5625 13.460938 27.253906 C 13.851562 27.402344 14.25 27.535156 14.652344 27.652344 C 14.644531 26.261719 14.644531 24.589844 14.644531 23.027344 C 13.761719 22.585938 12.972656 22.027344 12.273438 21.347656 C 11.363281 20.464844 10.660156 19.425781 10.167969 18.230469 C 9.671875 17.035156 9.425781 15.707031 9.425781 14.253906 C 9.425781 12.800781 9.671875 11.472656 10.167969 10.277344 C 10.660156 9.082031 11.363281 8.042969 12.273438 7.160156 C 13.179688 6.277344 14.246094 5.59375 15.46875 5.113281 C 16.6875 4.632812 18.039062 4.394531 19.519531 4.394531 C 20.949219 4.394531 22.289062 4.660156 23.535156 5.191406 C 24.78125 5.722656 25.898438 6.535156 26.886719 7.628906 L 29.925781 4.703125 C 28.679688 3.25 27.136719 2.136719 25.289062 1.371094 Z M 25.289062 1.371094 " fill-opacity="1" fill-rule="nonzero"/></g><path fill="#000000" d="M 26.886719 20.839844 C 26.320312 21.480469 25.710938 22.027344 25.058594 22.476562 C 25.066406 23.910156 25.066406 25.625 25.0625 27.203125 C 25.136719 27.175781 25.214844 27.148438 25.289062 27.113281 C 27.136719 26.335938 28.679688 25.21875 29.925781 23.765625 Z M 26.886719 20.839844 " fill-opacity="1" fill-rule="nonzero"/><path fill="#000000" d="M 23.515625 16.824219 C 23.589844 16.519531 23.46875 16.277344 23.320312 16.058594 C 23.101562 15.742188 22.792969 15.574219 22.390625 15.617188 C 22.113281 15.648438 21.796875 15.882812 21.71875 16.148438 C 21.636719 16.441406 21.742188 16.6875 21.957031 16.890625 C 21.984375 16.921875 22.023438 16.953125 22.0625 16.964844 C 22.480469 17.105469 22.410156 17.519531 22.542969 17.824219 C 22.550781 17.839844 22.457031 17.929688 22.414062 17.925781 C 21.230469 17.847656 20.46875 16.800781 20.917969 15.714844 C 21.324219 14.730469 22.613281 14.472656 23.457031 15.007812 C 24.058594 15.390625 24.335938 15.945312 24.378906 16.625 C 24.394531 16.859375 24.289062 17.105469 24.234375 17.347656 C 24.21875 17.414062 24.179688 17.480469 24.132812 17.589844 C 24.390625 17.578125 24.578125 17.488281 24.738281 17.355469 C 25.125 17.03125 25.367188 16.632812 25.304688 16.101562 C 25.289062 15.960938 25.339844 15.851562 25.449219 15.757812 C 26.257812 15.101562 26.328125 13.835938 25.757812 13.070312 C 25.660156 12.941406 25.640625 12.835938 25.691406 12.695312 C 25.921875 12.074219 25.839844 11.476562 25.496094 10.921875 C 25.367188 10.707031 25.164062 10.539062 25 10.347656 C 24.941406 10.28125 24.863281 10.207031 24.851562 10.125 C 24.765625 9.542969 24.464844 9.097656 23.941406 8.859375 C 23.53125 8.667969 23.203125 8.417969 22.898438 8.078125 C 22.261719 7.367188 20.542969 7.285156 19.984375 8.585938 C 19.9375 8.699219 19.902344 8.820312 19.847656 8.980469 C 19.816406 8.886719 19.792969 8.828125 19.78125 8.769531 C 19.625 8.085938 19.011719 7.605469 18.304688 7.582031 C 17.84375 7.570312 17.414062 7.640625 17.019531 7.894531 C 16.777344 8.046875 16.628906 8.273438 16.488281 8.511719 C 16.441406 8.589844 16.339844 8.679688 16.253906 8.6875 C 15.65625 8.730469 14.957031 9.394531 14.898438 10.136719 C 14.894531 10.199219 14.851562 10.285156 14.800781 10.320312 C 14.335938 10.644531 14.058594 11.089844 13.949219 11.636719 C 13.878906 11.976562 13.867188 12.332031 14 12.667969 C 14.070312 12.847656 14.039062 12.976562 13.921875 13.140625 C 13.574219 13.609375 13.515625 14.144531 13.632812 14.703125 C 13.71875 15.117188 13.917969 15.460938 14.226562 15.742188 C 14.351562 15.855469 14.410156 15.980469 14.394531 16.152344 C 14.328125 16.84375 15.132812 17.695312 15.757812 17.777344 C 15.847656 17.789062 15.945312 17.886719 16.011719 17.96875 C 16.316406 18.347656 16.714844 18.578125 17.175781 18.707031 C 18.324219 19.027344 19.070312 19.761719 19.351562 20.917969 C 19.445312 21.3125 19.410156 21.734375 19.429688 22.144531 C 19.433594 22.300781 19.433594 22.457031 19.429688 22.613281 C 19.425781 22.730469 19.472656 22.773438 19.597656 22.769531 C 20.066406 22.761719 20.53125 22.769531 21 22.761719 C 21.171875 22.757812 21.238281 22.816406 21.226562 22.988281 C 21.214844 23.128906 21.222656 23.273438 21.222656 23.417969 C 21.226562 23.527344 21.179688 23.574219 21.066406 23.574219 C 20.28125 23.570312 19.496094 23.566406 18.710938 23.566406 C 18.53125 23.566406 18.472656 23.5 18.472656 23.320312 C 18.484375 22.820312 18.464844 22.324219 18.476562 21.824219 C 18.503906 20.621094 17.871094 19.945312 16.84375 19.539062 C 15.9375 19.183594 15.074219 18.75 14.394531 18.039062 C 14.085938 17.714844 13.824219 17.34375 13.601562 16.957031 C 13.109375 16.113281 12.796875 15.207031 12.695312 14.226562 C 12.605469 13.367188 12.726562 12.53125 12.925781 11.695312 C 13.09375 10.992188 13.363281 10.328125 13.734375 9.714844 C 13.929688 9.390625 14.167969 9.09375 14.417969 8.804688 C 15.011719 8.117188 15.722656 7.578125 16.527344 7.160156 C 17.132812 6.84375 17.777344 6.640625 18.449219 6.515625 C 19.164062 6.382812 19.882812 6.40625 20.59375 6.441406 C 21.492188 6.484375 22.351562 6.746094 23.152344 7.15625 C 24.628906 7.902344 25.707031 9.046875 26.398438 10.546875 C 26.671875 11.136719 26.8125 11.765625 26.871094 12.40625 C 26.921875 12.953125 26.933594 13.5 26.957031 14.046875 C 26.996094 14.945312 26.703125 15.765625 26.339844 16.566406 C 26.09375 17.109375 25.765625 17.601562 25.367188 18.046875 C 24.695312 18.800781 23.574219 18.605469 23.082031 17.894531 C 22.9375 17.683594 22.816406 17.457031 22.710938 17.226562 C 22.597656 16.980469 22.65625 16.789062 22.84375 16.667969 C 23.046875 16.53125 23.242188 16.566406 23.441406 16.769531 C 23.457031 16.789062 23.476562 16.796875 23.515625 16.824219 Z M 23.515625 16.824219 " fill-opacity="1" fill-rule="nonzero"/><path fill="#000000" d="M 24.988281 19.589844 C 24.988281 19.753906 24.992188 19.917969 24.988281 20.085938 C 24.980469 20.308594 24.972656 20.53125 24.957031 20.757812 C 24.949219 20.875 24.878906 20.910156 24.757812 20.925781 C 23.945312 21.039062 23.324219 21.449219 23.179688 22.257812 C 23.101562 22.6875 23.144531 23.136719 23.140625 23.578125 C 23.136719 23.820312 23.15625 24.0625 23.144531 24.304688 C 23.121094 24.882812 23.117188 25.464844 23.046875 26.039062 C 23.003906 26.421875 22.777344 26.734375 22.425781 26.925781 C 22.3125 26.984375 22.265625 27.0625 22.273438 27.191406 C 22.339844 28.066406 21.503906 28.859375 20.679688 28.871094 C 20.164062 28.878906 19.644531 28.898438 19.128906 28.886719 C 18.320312 28.871094 17.433594 28.136719 17.449219 27.203125 C 17.453125 27.054688 17.402344 26.960938 17.273438 26.882812 C 16.816406 26.613281 16.59375 26.203125 16.59375 25.671875 C 16.59375 24.699219 16.570312 23.726562 16.597656 22.753906 C 16.625 21.792969 15.984375 21.148438 15.121094 20.957031 C 14.710938 20.867188 14.714844 20.871094 14.707031 20.449219 C 14.699219 20.195312 14.671875 19.941406 14.65625 19.6875 C 14.652344 19.660156 14.664062 19.628906 14.675781 19.578125 C 14.851562 19.671875 15.007812 19.765625 15.171875 19.84375 C 15.554688 20.027344 15.960938 20.167969 16.320312 20.382812 C 17.078125 20.839844 17.523438 21.496094 17.511719 22.417969 C 17.5 23.421875 17.507812 24.425781 17.507812 25.433594 C 17.507812 25.917969 17.730469 26.140625 18.214844 26.140625 C 19.300781 26.140625 20.386719 26.140625 21.472656 26.140625 C 21.964844 26.140625 22.1875 25.921875 22.1875 25.414062 C 22.195312 24.378906 22.183594 23.34375 22.195312 22.308594 C 22.203125 21.425781 22.636719 20.777344 23.386719 20.347656 C 23.757812 20.136719 24.160156 19.972656 24.542969 19.78125 C 24.675781 19.714844 24.796875 19.636719 24.925781 19.5625 C 24.945312 19.570312 24.96875 19.582031 24.988281 19.589844 Z M 19.855469 27.027344 C 19.855469 27.027344 19.855469 27.03125 19.855469 27.03125 C 19.417969 27.03125 18.984375 27.035156 18.546875 27.03125 C 18.390625 27.03125 18.351562 27.109375 18.367188 27.242188 C 18.398438 27.566406 18.730469 27.886719 19.0625 27.890625 C 19.582031 27.894531 20.097656 27.898438 20.613281 27.890625 C 20.972656 27.882812 21.273438 27.613281 21.328125 27.265625 C 21.355469 27.082031 21.3125 27.027344 21.125 27.027344 C 20.703125 27.023438 20.277344 27.027344 19.855469 27.027344 Z M 19.855469 27.027344 " fill-opacity="1" fill-rule="nonzero"/><path fill="#000000" d="M 24.828125 12.8125 C 24.917969 12.492188 24.96875 12.171875 24.910156 11.824219 C 24.761719 10.972656 23.910156 10.351562 23.195312 10.257812 C 22.855469 10.214844 22.503906 10.242188 22.160156 10.257812 C 21.929688 10.269531 21.765625 10.484375 21.804688 10.71875 C 21.828125 10.851562 21.875 10.984375 21.941406 11.101562 C 22 11.207031 22.082031 11.320312 22.230469 11.195312 C 22.265625 11.171875 22.328125 11.179688 22.378906 11.179688 C 22.558594 11.175781 22.742188 11.195312 22.917969 11.171875 C 23.1875 11.132812 23.414062 11.214844 23.621094 11.363281 C 23.941406 11.59375 24.140625 11.910156 24.054688 12.308594 C 23.972656 12.703125 23.722656 12.984375 23.3125 13.089844 C 23.191406 13.121094 23.082031 13.121094 22.992188 13.007812 C 22.839844 12.808594 22.621094 12.765625 22.414062 12.878906 C 22.199219 13 22.101562 13.226562 22.171875 13.449219 C 22.269531 13.761719 22.605469 14.007812 22.949219 14.035156 C 23.652344 14.089844 24.195312 13.8125 24.609375 13.253906 C 24.636719 13.214844 24.652344 13.183594 24.691406 13.140625 C 24.730469 13.089844 24.742188 13.070312 24.777344 12.988281 " fill-opacity="1" fill-rule="nonzero"/><path fill="#000000" d="M 19.671875 13.589844 C 19.671875 12.914062 19.679688 12.238281 19.667969 11.566406 C 19.664062 11.289062 19.617188 11.015625 19.378906 10.828125 C 19.296875 10.761719 19.199219 10.714844 19.101562 10.675781 C 18.835938 10.5625 18.625 10.40625 18.574219 10.097656 C 18.542969 9.890625 18.65625 9.652344 18.835938 9.5625 C 19.003906 9.480469 19.175781 9.519531 19.289062 9.667969 C 19.347656 9.746094 19.402344 9.832031 19.464844 9.910156 C 19.683594 10.191406 20.039062 10.1875 20.253906 9.898438 C 20.296875 9.84375 20.339844 9.789062 20.363281 9.726562 C 20.425781 9.582031 20.523438 9.511719 20.683594 9.523438 C 20.847656 9.53125 20.988281 9.574219 21.074219 9.730469 C 21.257812 10.058594 21.089844 10.5625 20.71875 10.652344 C 20.179688 10.785156 20.015625 11.171875 20.027344 11.636719 C 20.042969 12.347656 20.042969 13.058594 20.046875 13.769531 C 20.054688 14.234375 20.066406 14.699219 20.066406 15.164062 C 20.066406 15.363281 20.050781 15.5625 20.023438 15.761719 C 20.015625 15.804688 19.921875 15.875 19.878906 15.871094 C 19.808594 15.863281 19.726562 15.808594 19.683594 15.753906 C 19.652344 15.714844 19.671875 15.632812 19.671875 15.570312 C 19.671875 14.910156 19.671875 14.25 19.671875 13.589844 Z M 19.671875 13.589844 " fill-opacity="1" fill-rule="nonzero"/><path fill="#000000" d="M 18.964844 12.125 C 19.003906 12.277344 19.035156 12.367188 19.039062 12.457031 C 19.058594 12.996094 19.144531 13.535156 19.003906 14.070312 C 18.917969 14.40625 18.789062 14.714844 18.539062 14.96875 C 18.242188 15.273438 17.929688 15.539062 17.523438 15.679688 C 17.390625 15.726562 17.289062 15.722656 17.195312 15.601562 C 17.042969 15.414062 16.878906 15.234375 16.726562 15.046875 C 16.640625 14.945312 16.699219 14.902344 16.800781 14.863281 C 17.074219 14.765625 17.367188 14.6875 17.605469 14.535156 C 18.125 14.195312 18.261719 13.660156 18.199219 13.078125 C 18.179688 12.890625 18.207031 12.765625 18.34375 12.652344 C 18.539062 12.484375 18.734375 12.316406 18.964844 12.125 Z M 18.964844 12.125 " fill-opacity="1" fill-rule="nonzero"/><path fill="#000000" d="M 15.089844 12.125 C 15.082031 11.96875 15.109375 11.179688 15.121094 11.089844 C 15.183594 10.554688 15.238281 10.476562 15.359375 10.195312 C 15.5 9.878906 15.675781 9.597656 15.964844 9.382812 C 16.300781 9.128906 16.652344 8.914062 17.078125 8.839844 C 17.214844 8.816406 17.316406 8.835938 17.390625 8.96875 C 17.507812 9.179688 17.472656 9.058594 17.59375 9.269531 C 17.660156 9.382812 17.597656 9.484375 17.488281 9.503906 C 17.207031 9.5625 16.90625 9.589844 16.644531 9.707031 C 16.078125 9.957031 15.929688 10.714844 15.894531 11.296875 C 15.886719 11.484375 15.976562 11.816406 15.824219 11.90625 C 15.601562 12.039062 15.347656 11.96875 15.089844 12.125 Z M 15.089844 12.125 " fill-opacity="1" fill-rule="nonzero"/><path fill="#000000" d="M 19.839844 24.476562 C 20.234375 24.476562 20.625 24.480469 21.015625 24.472656 C 21.171875 24.472656 21.234375 24.523438 21.222656 24.679688 C 21.214844 24.828125 21.21875 24.980469 21.222656 25.128906 C 21.222656 25.238281 21.171875 25.28125 21.0625 25.28125 C 20.277344 25.273438 19.496094 25.269531 18.710938 25.273438 C 18.535156 25.273438 18.460938 25.214844 18.476562 25.035156 C 18.484375 24.929688 18.472656 24.824219 18.46875 24.71875 C 18.457031 24.488281 18.464844 24.476562 18.703125 24.476562 C 19.082031 24.476562 19.460938 24.476562 19.839844 24.476562 Z M 19.839844 24.476562 " fill-opacity="1" fill-rule="nonzero"/><path fill="#000000" d="M 16.738281 14.035156 C 16.285156 14.035156 15.957031 13.898438 15.648438 13.691406 C 15.535156 13.617188 15.523438 13.535156 15.605469 13.429688 C 15.714844 13.292969 15.820312 13.15625 15.921875 13.015625 C 15.980469 12.941406 16.035156 12.921875 16.128906 12.972656 C 16.222656 13.027344 16.332031 13.078125 16.4375 13.089844 C 16.515625 13.101562 16.625 13.070312 16.683594 13.015625 C 16.96875 12.753906 17.226562 12.734375 17.4375 12.980469 C 17.675781 13.253906 17.644531 13.546875 17.335938 13.828125 C 17.15625 13.992188 16.953125 14.039062 16.738281 14.035156 Z M 16.738281 14.035156 " fill-opacity="1" fill-rule="nonzero"/><path fill="#000000" d="M 17.644531 17.890625 C 17.1875 17.863281 16.769531 17.753906 16.476562 17.527344 C 15.875 17.304688 14.882812 16.0625 14.96875 15.960938 C 15.085938 15.832031 15.324219 15.726562 15.433594 15.59375 C 15.496094 15.523438 16.011719 16.6875 16.773438 16.855469 C 16.867188 16.914062 17.289062 16.90625 17.398438 16.925781 C 17.476562 16.941406 17.585938 16.917969 17.648438 16.867188 C 17.945312 16.625 18.207031 16.621094 18.402344 16.878906 C 18.621094 17.164062 18.574219 17.453125 18.25 17.71875 C 18.0625 17.871094 17.855469 17.90625 17.644531 17.890625 Z M 17.644531 17.890625 " fill-opacity="1" fill-rule="nonzero"/><path fill="#000000" d="M 32.566406 15.898438 C 32.257812 15.730469 32.019531 15.5 31.84375 15.207031 C 31.667969 14.910156 31.582031 14.578125 31.582031 14.207031 C 31.582031 13.835938 31.667969 13.503906 31.84375 13.207031 C 32.023438 12.914062 32.265625 12.683594 32.570312 12.515625 C 32.878906 12.347656 33.222656 12.261719 33.605469 12.261719 C 33.914062 12.261719 34.199219 12.316406 34.453125 12.425781 C 34.710938 12.53125 34.925781 12.691406 35.101562 12.894531 L 34.648438 13.320312 C 34.375 13.027344 34.039062 12.878906 33.636719 12.878906 C 33.378906 12.878906 33.148438 12.9375 32.941406 13.050781 C 32.734375 13.164062 32.578125 13.320312 32.460938 13.519531 C 32.347656 13.722656 32.289062 13.953125 32.289062 14.207031 C 32.289062 14.464844 32.347656 14.691406 32.460938 14.894531 C 32.578125 15.09375 32.734375 15.253906 32.941406 15.367188 C 33.148438 15.480469 33.378906 15.535156 33.636719 15.535156 C 34.039062 15.535156 34.375 15.386719 34.648438 15.085938 L 35.101562 15.519531 C 34.925781 15.726562 34.707031 15.882812 34.453125 15.988281 C 34.195312 16.097656 33.910156 16.152344 33.601562 16.152344 C 33.21875 16.152344 32.875 16.066406 32.566406 15.898438 Z M 32.566406 15.898438 " fill-opacity="1" fill-rule="nonzero"/><path fill="#000000" d="M 36.109375 15.945312 C 35.878906 15.820312 35.695312 15.644531 35.5625 15.417969 C 35.433594 15.195312 35.367188 14.941406 35.367188 14.65625 C 35.367188 14.371094 35.433594 14.117188 35.5625 13.894531 C 35.695312 13.671875 35.878906 13.496094 36.109375 13.371094 C 36.34375 13.246094 36.609375 13.183594 36.898438 13.183594 C 37.195312 13.183594 37.460938 13.246094 37.691406 13.371094 C 37.925781 13.496094 38.109375 13.671875 38.242188 13.894531 C 38.371094 14.117188 38.4375 14.371094 38.4375 14.65625 C 38.4375 14.941406 38.371094 15.195312 38.242188 15.417969 C 38.109375 15.644531 37.925781 15.820312 37.691406 15.945312 C 37.460938 16.070312 37.195312 16.136719 36.898438 16.136719 C 36.609375 16.136719 36.34375 16.070312 36.109375 15.945312 Z M 37.515625 15.308594 C 37.675781 15.144531 37.757812 14.925781 37.757812 14.65625 C 37.757812 14.386719 37.675781 14.167969 37.515625 14.003906 C 37.351562 13.835938 37.148438 13.753906 36.898438 13.753906 C 36.652344 13.753906 36.445312 13.835938 36.285156 14.003906 C 36.125 14.167969 36.046875 14.386719 36.046875 14.65625 C 36.046875 14.925781 36.125 15.144531 36.285156 15.308594 C 36.445312 15.476562 36.652344 15.558594 36.898438 15.558594 C 37.148438 15.558594 37.351562 15.476562 37.515625 15.308594 Z M 37.515625 15.308594 " fill-opacity="1" fill-rule="nonzero"/><path fill="#000000" d="M 41.910156 12.089844 L 41.910156 16.097656 L 41.261719 16.097656 L 41.261719 15.726562 C 41.152344 15.863281 41.011719 15.964844 40.847656 16.03125 C 40.683594 16.101562 40.503906 16.136719 40.304688 16.136719 C 40.03125 16.136719 39.78125 16.074219 39.558594 15.953125 C 39.335938 15.832031 39.164062 15.65625 39.035156 15.429688 C 38.910156 15.207031 38.847656 14.949219 38.847656 14.65625 C 38.847656 14.363281 38.910156 14.105469 39.035156 13.882812 C 39.164062 13.660156 39.335938 13.488281 39.558594 13.367188 C 39.78125 13.242188 40.03125 13.183594 40.304688 13.183594 C 40.496094 13.183594 40.671875 13.214844 40.828125 13.28125 C 40.988281 13.34375 41.121094 13.441406 41.234375 13.570312 L 41.234375 12.089844 Z M 40.824219 15.445312 C 40.953125 15.371094 41.058594 15.269531 41.132812 15.128906 C 41.207031 14.992188 41.246094 14.835938 41.246094 14.65625 C 41.246094 14.476562 41.207031 14.316406 41.132812 14.179688 C 41.058594 14.042969 40.953125 13.9375 40.824219 13.863281 C 40.695312 13.789062 40.550781 13.753906 40.386719 13.753906 C 40.226562 13.753906 40.078125 13.789062 39.953125 13.863281 C 39.820312 13.9375 39.71875 14.042969 39.640625 14.179688 C 39.566406 14.316406 39.53125 14.476562 39.53125 14.65625 C 39.53125 14.835938 39.566406 14.996094 39.640625 15.128906 C 39.71875 15.269531 39.820312 15.371094 39.953125 15.445312 C 40.078125 15.519531 40.226562 15.558594 40.386719 15.558594 C 40.550781 15.558594 40.695312 15.519531 40.824219 15.445312 Z M 40.824219 15.445312 " fill-opacity="1" fill-rule="nonzero"/><path fill="#000000" d="M 45.496094 14.871094 L 43.234375 14.871094 C 43.273438 15.085938 43.375 15.253906 43.542969 15.375 C 43.710938 15.5 43.917969 15.5625 44.167969 15.5625 C 44.484375 15.5625 44.746094 15.457031 44.949219 15.25 L 45.3125 15.664062 C 45.179688 15.820312 45.019531 15.9375 44.820312 16.015625 C 44.621094 16.097656 44.398438 16.136719 44.152344 16.136719 C 43.835938 16.136719 43.554688 16.070312 43.3125 15.945312 C 43.070312 15.820312 42.886719 15.644531 42.753906 15.417969 C 42.625 15.195312 42.558594 14.941406 42.558594 14.65625 C 42.558594 14.375 42.621094 14.121094 42.75 13.898438 C 42.878906 13.671875 43.054688 13.496094 43.28125 13.371094 C 43.507812 13.246094 43.761719 13.183594 44.046875 13.183594 C 44.328125 13.183594 44.578125 13.242188 44.800781 13.367188 C 45.023438 13.492188 45.195312 13.667969 45.320312 13.890625 C 45.441406 14.117188 45.503906 14.378906 45.503906 14.671875 C 45.503906 14.71875 45.503906 14.785156 45.496094 14.871094 Z M 43.5 13.914062 C 43.351562 14.042969 43.261719 14.210938 43.226562 14.425781 L 44.863281 14.425781 C 44.835938 14.214844 44.746094 14.046875 44.597656 13.917969 C 44.453125 13.785156 44.269531 13.722656 44.050781 13.722656 C 43.832031 13.722656 43.648438 13.785156 43.5 13.914062 Z M 43.5 13.914062 " fill-opacity="1" fill-rule="nonzero"/><path fill="#000000" d="M 47.824219 13.183594 L 47.824219 13.824219 C 47.765625 13.8125 47.710938 13.808594 47.664062 13.808594 C 47.402344 13.808594 47.199219 13.882812 47.050781 14.035156 C 46.902344 14.191406 46.828125 14.410156 46.828125 14.699219 L 46.828125 16.097656 L 46.15625 16.097656 L 46.15625 13.214844 L 46.796875 13.214844 L 46.796875 13.636719 C 46.992188 13.332031 47.332031 13.183594 47.824219 13.183594 Z M 47.824219 13.183594 " fill-opacity="1" fill-rule="nonzero"/><path fill="#000000" d="M 48.433594 12.316406 L 49.132812 12.316406 L 49.132812 16.097656 L 48.433594 16.097656 Z M 48.433594 12.316406 " fill-opacity="1" fill-rule="nonzero"/><path fill="#000000" d="M 52.601562 13.5 C 52.820312 13.710938 52.929688 14.027344 52.929688 14.445312 L 52.929688 16.097656 L 52.253906 16.097656 L 52.253906 14.53125 C 52.253906 14.28125 52.195312 14.089844 52.078125 13.960938 C 51.957031 13.835938 51.789062 13.769531 51.570312 13.769531 C 51.320312 13.769531 51.125 13.84375 50.980469 13.996094 C 50.835938 14.144531 50.765625 14.359375 50.765625 14.640625 L 50.765625 16.097656 L 50.089844 16.097656 L 50.089844 13.214844 L 50.734375 13.214844 L 50.734375 13.585938 C 50.84375 13.453125 50.984375 13.351562 51.152344 13.285156 C 51.324219 13.214844 51.515625 13.179688 51.726562 13.179688 C 52.089844 13.183594 52.382812 13.289062 52.601562 13.5 Z M 52.601562 13.5 " fill-opacity="1" fill-rule="nonzero"/><path fill="#000000" d="M 53.992188 16.042969 C 53.769531 15.980469 53.59375 15.90625 53.460938 15.808594 L 53.71875 15.296875 C 53.847656 15.382812 54.003906 15.453125 54.183594 15.507812 C 54.367188 15.558594 54.546875 15.585938 54.722656 15.585938 C 55.125 15.585938 55.328125 15.476562 55.328125 15.265625 C 55.328125 15.164062 55.277344 15.09375 55.171875 15.054688 C 55.070312 15.015625 54.90625 14.976562 54.679688 14.941406 C 54.441406 14.90625 54.25 14.863281 54.097656 14.816406 C 53.949219 14.769531 53.820312 14.6875 53.710938 14.574219 C 53.601562 14.457031 53.546875 14.292969 53.546875 14.082031 C 53.546875 13.8125 53.660156 13.589844 53.886719 13.429688 C 54.117188 13.265625 54.425781 13.183594 54.8125 13.183594 C 55.011719 13.183594 55.210938 13.207031 55.410156 13.25 C 55.605469 13.296875 55.769531 13.355469 55.894531 13.429688 L 55.636719 13.945312 C 55.390625 13.800781 55.117188 13.726562 54.808594 13.726562 C 54.609375 13.726562 54.460938 13.757812 54.359375 13.816406 C 54.257812 13.875 54.203125 13.953125 54.203125 14.050781 C 54.203125 14.160156 54.257812 14.234375 54.367188 14.28125 C 54.480469 14.328125 54.648438 14.367188 54.878906 14.410156 C 55.109375 14.445312 55.296875 14.484375 55.445312 14.53125 C 55.59375 14.578125 55.71875 14.65625 55.828125 14.769531 C 55.933594 14.882812 55.988281 15.039062 55.988281 15.246094 C 55.988281 15.515625 55.871094 15.730469 55.636719 15.894531 C 55.402344 16.054688 55.082031 16.136719 54.679688 16.136719 C 54.445312 16.136719 54.214844 16.105469 53.992188 16.042969 Z M 53.992188 16.042969 " fill-opacity="1" fill-rule="nonzero"/><path fill="#000000" d="M 56.601562 12.621094 C 56.519531 12.546875 56.476562 12.449219 56.476562 12.332031 C 56.476562 12.21875 56.519531 12.121094 56.601562 12.046875 C 56.683594 11.96875 56.785156 11.929688 56.910156 11.929688 C 57.03125 11.929688 57.136719 11.964844 57.21875 12.039062 C 57.300781 12.113281 57.34375 12.207031 57.34375 12.316406 C 57.34375 12.4375 57.300781 12.535156 57.21875 12.617188 C 57.140625 12.699219 57.035156 12.738281 56.910156 12.738281 C 56.785156 12.738281 56.683594 12.699219 56.601562 12.621094 Z M 56.570312 13.214844 L 57.246094 13.214844 L 57.246094 16.097656 L 56.570312 16.097656 Z M 56.570312 13.214844 " fill-opacity="1" fill-rule="nonzero"/><path fill="#000000" d="M 60.992188 13.214844 L 60.992188 15.660156 C 60.992188 16.675781 60.472656 17.183594 59.4375 17.183594 C 59.160156 17.183594 58.894531 17.148438 58.648438 17.078125 C 58.398438 17.007812 58.195312 16.90625 58.03125 16.773438 L 58.335938 16.265625 C 58.460938 16.367188 58.621094 16.453125 58.8125 16.515625 C 59.003906 16.578125 59.199219 16.609375 59.398438 16.609375 C 59.714844 16.609375 59.945312 16.539062 60.09375 16.394531 C 60.242188 16.25 60.316406 16.03125 60.316406 15.734375 L 60.316406 15.585938 C 60.199219 15.710938 60.0625 15.804688 59.894531 15.871094 C 59.730469 15.933594 59.546875 15.96875 59.347656 15.96875 C 59.078125 15.96875 58.828125 15.910156 58.609375 15.792969 C 58.386719 15.675781 58.210938 15.511719 58.082031 15.296875 C 57.957031 15.085938 57.890625 14.84375 57.890625 14.570312 C 57.890625 14.296875 57.957031 14.054688 58.082031 13.84375 C 58.210938 13.632812 58.386719 13.46875 58.609375 13.355469 C 58.828125 13.238281 59.078125 13.183594 59.347656 13.183594 C 59.558594 13.183594 59.75 13.214844 59.921875 13.285156 C 60.089844 13.351562 60.234375 13.457031 60.347656 13.597656 L 60.347656 13.214844 Z M 60.082031 15.164062 C 60.246094 15.015625 60.328125 14.816406 60.328125 14.570312 C 60.328125 14.328125 60.246094 14.132812 60.082031 13.980469 C 59.917969 13.828125 59.707031 13.753906 59.453125 13.753906 C 59.195312 13.753906 58.980469 13.828125 58.816406 13.980469 C 58.65625 14.132812 58.574219 14.328125 58.574219 14.570312 C 58.574219 14.8125 58.65625 15.011719 58.816406 15.164062 C 58.980469 15.320312 59.195312 15.394531 59.453125 15.394531 C 59.707031 15.394531 59.917969 15.320312 60.082031 15.164062 Z M 60.082031 15.164062 " fill-opacity="1" fill-rule="nonzero"/><path fill="#000000" d="M 64.386719 13.5 C 64.605469 13.710938 64.71875 14.027344 64.71875 14.445312 L 64.71875 16.097656 L 64.042969 16.097656 L 64.042969 14.53125 C 64.042969 14.28125 63.984375 14.089844 63.863281 13.960938 C 63.746094 13.835938 63.574219 13.769531 63.355469 13.769531 C 63.109375 13.769531 62.914062 13.84375 62.769531 13.996094 C 62.625 14.144531 62.550781 14.359375 62.550781 14.640625 L 62.550781 16.097656 L 61.878906 16.097656 L 61.878906 12.089844 L 62.550781 12.089844 L 62.550781 13.546875 C 62.664062 13.429688 62.800781 13.339844 62.964844 13.277344 C 63.128906 13.214844 63.3125 13.179688 63.511719 13.179688 C 63.875 13.183594 64.167969 13.289062 64.386719 13.5 Z M 64.386719 13.5 " fill-opacity="1" fill-rule="nonzero"/><path fill="#000000" d="M 67.308594 15.941406 C 67.230469 16.003906 67.132812 16.054688 67.019531 16.085938 C 66.90625 16.117188 66.785156 16.136719 66.660156 16.136719 C 66.34375 16.136719 66.101562 16.050781 65.925781 15.886719 C 65.753906 15.722656 65.667969 15.480469 65.667969 15.164062 L 65.667969 13.773438 L 65.191406 13.773438 L 65.191406 13.234375 L 65.667969 13.234375 L 65.667969 12.578125 L 66.34375 12.578125 L 66.34375 13.234375 L 67.113281 13.234375 L 67.113281 13.773438 L 66.34375 13.773438 L 66.34375 15.148438 C 66.34375 15.285156 66.375 15.394531 66.445312 15.46875 C 66.515625 15.539062 66.613281 15.578125 66.742188 15.578125 C 66.894531 15.578125 67.019531 15.539062 67.121094 15.460938 Z M 67.308594 15.941406 " fill-opacity="1" fill-rule="nonzero"/><g clip-path="url(#392ec2dba9)"><path fill="#000000" d="M 68.070312 16.042969 C 67.847656 15.980469 67.667969 15.90625 67.535156 15.808594 L 67.792969 15.296875 C 67.925781 15.382812 68.078125 15.453125 68.261719 15.507812 C 68.441406 15.558594 68.621094 15.585938 68.796875 15.585938 C 69.203125 15.585938 69.402344 15.476562 69.402344 15.265625 C 69.402344 15.164062 69.351562 15.09375 69.25 15.054688 C 69.148438 15.015625 68.980469 14.976562 68.753906 14.941406 C 68.515625 14.90625 68.324219 14.863281 68.175781 14.816406 C 68.023438 14.769531 67.894531 14.6875 67.785156 14.574219 C 67.675781 14.457031 67.621094 14.292969 67.621094 14.082031 C 67.621094 13.8125 67.734375 13.589844 67.964844 13.429688 C 68.191406 13.265625 68.5 13.183594 68.890625 13.183594 C 69.089844 13.183594 69.285156 13.207031 69.484375 13.25 C 69.683594 13.296875 69.84375 13.355469 69.96875 13.429688 L 69.710938 13.945312 C 69.464844 13.800781 69.191406 13.726562 68.886719 13.726562 C 68.6875 13.726562 68.539062 13.757812 68.433594 13.816406 C 68.332031 13.875 68.28125 13.953125 68.28125 14.050781 C 68.28125 14.160156 68.335938 14.234375 68.445312 14.28125 C 68.554688 14.328125 68.726562 14.367188 68.957031 14.410156 C 69.1875 14.445312 69.375 14.484375 69.523438 14.53125 C 69.671875 14.578125 69.796875 14.65625 69.902344 14.769531 C 70.007812 14.882812 70.0625 15.039062 70.0625 15.246094 C 70.0625 15.515625 69.945312 15.730469 69.710938 15.894531 C 69.476562 16.054688 69.160156 16.136719 68.753906 16.136719 C 68.519531 16.136719 68.292969 16.105469 68.070312 16.042969 Z M 68.070312 16.042969 " fill-opacity="1" fill-rule="nonzero"/></g></svg>