<svg xmlns="http://www.w3.org/2000/svg" xmlns:xlink="http://www.w3.org/1999/xlink" width="500" zoomAndPan="magnify" viewBox="0 0 375 374.999991" height="500" preserveAspectRatio="xMidYMid meet" version="1.0"><path fill="#000000" d="M 158.960938 141.289062 C 152.519531 138.617188 145.535156 137.277344 138.007812 137.277344 C 130.75 137.277344 124.015625 138.480469 117.800781 140.882812 C 111.585938 143.285156 106.1875 146.710938 101.609375 151.15625 C 97.027344 155.601562 93.492188 160.792969 90.996094 166.734375 C 88.5 172.679688 87.257812 179.1875 87.257812 186.261719 C 87.257812 193.335938 88.5 199.847656 90.996094 205.785156 C 93.492188 211.726562 97.007812 216.921875 101.542969 221.367188 C 106.078125 225.8125 111.453125 229.234375 117.664062 231.640625 C 119.027344 232.164062 120.417969 232.625 121.832031 233.03125 C 121.800781 228.183594 121.792969 222.34375 121.804688 216.886719 C 118.722656 215.347656 115.957031 213.398438 113.515625 211.023438 C 110.339844 207.941406 107.890625 204.3125 106.167969 200.140625 C 104.445312 195.96875 103.582031 191.339844 103.582031 186.261719 C 103.582031 181.183594 104.445312 176.554688 106.167969 172.382812 C 107.890625 168.210938 110.339844 164.582031 113.515625 161.496094 C 116.6875 158.414062 120.410156 156.035156 124.671875 154.355469 C 128.933594 152.675781 133.652344 151.835938 138.824219 151.835938 C 143.808594 151.835938 148.484375 152.769531 152.835938 154.625 C 157.191406 156.484375 161.089844 159.320312 164.539062 163.128906 L 175.152344 152.925781 C 170.800781 147.84375 165.402344 143.964844 158.960938 141.289062 Z M 158.960938 141.289062 " fill-opacity="1" fill-rule="nonzero"/><path fill="#000000" d="M 164.539062 209.253906 C 162.558594 211.496094 160.429688 213.394531 158.148438 214.960938 C 158.179688 219.964844 158.183594 225.953125 158.167969 231.472656 C 158.433594 231.367188 158.699219 231.269531 158.960938 231.160156 C 165.402344 228.441406 170.800781 224.542969 175.152344 219.460938 Z M 164.539062 209.253906 " fill-opacity="1" fill-rule="nonzero"/><path fill="#000000" d="M 152.773438 195.234375 C 153.023438 194.167969 152.605469 193.320312 152.082031 192.566406 C 151.316406 191.457031 150.246094 190.875 148.835938 191.027344 C 147.878906 191.128906 146.761719 191.945312 146.5 192.875 C 146.207031 193.898438 146.582031 194.753906 147.320312 195.46875 C 147.425781 195.574219 147.554688 195.679688 147.695312 195.726562 C 149.160156 196.210938 148.914062 197.667969 149.371094 198.71875 C 149.394531 198.773438 149.070312 199.097656 148.925781 199.085938 C 144.789062 198.808594 142.136719 195.15625 143.703125 191.359375 C 145.117188 187.925781 149.617188 187.023438 152.5625 188.890625 C 154.667969 190.226562 155.632812 192.167969 155.78125 194.535156 C 155.835938 195.363281 155.472656 196.21875 155.273438 197.058594 C 155.21875 197.296875 155.085938 197.523438 154.921875 197.902344 C 155.824219 197.871094 156.476562 197.554688 157.03125 197.089844 C 158.382812 195.957031 159.238281 194.570312 159.015625 192.714844 C 158.957031 192.214844 159.132812 191.835938 159.519531 191.515625 C 162.339844 189.214844 162.582031 184.800781 160.589844 182.125 C 160.257812 181.679688 160.179688 181.316406 160.367188 180.820312 C 161.171875 178.648438 160.875 176.5625 159.6875 174.628906 C 159.230469 173.882812 158.523438 173.296875 157.945312 172.625 C 157.742188 172.386719 157.46875 172.128906 157.429688 171.851562 C 157.132812 169.816406 156.078125 168.265625 154.257812 167.425781 C 152.816406 166.757812 151.679688 165.894531 150.613281 164.703125 C 148.394531 162.222656 142.386719 161.929688 140.445312 166.480469 C 140.277344 166.875 140.160156 167.289062 139.96875 167.851562 C 139.859375 167.527344 139.773438 167.324219 139.726562 167.113281 C 139.179688 164.722656 137.042969 163.046875 134.578125 162.976562 C 132.964844 162.929688 131.460938 163.179688 130.085938 164.058594 C 129.246094 164.589844 128.730469 165.378906 128.234375 166.210938 C 128.070312 166.488281 127.710938 166.804688 127.421875 166.828125 C 125.328125 166.984375 122.886719 169.296875 122.6875 171.886719 C 122.667969 172.113281 122.527344 172.402344 122.347656 172.527344 C 120.722656 173.65625 119.757812 175.214844 119.371094 177.121094 C 119.125 178.316406 119.089844 179.546875 119.542969 180.71875 C 119.789062 181.355469 119.691406 181.808594 119.269531 182.375 C 118.0625 184.007812 117.859375 185.875 118.269531 187.835938 C 118.570312 189.273438 119.261719 190.476562 120.335938 191.457031 C 120.773438 191.855469 120.976562 192.292969 120.921875 192.886719 C 120.691406 195.304688 123.5 198.269531 125.679688 198.558594 C 126.003906 198.601562 126.339844 198.941406 126.570312 199.226562 C 127.632812 200.554688 129.03125 201.351562 130.632812 201.804688 C 134.648438 202.929688 137.25 205.492188 138.230469 209.53125 C 138.5625 210.898438 138.433594 212.378906 138.5 213.808594 C 138.523438 214.351562 138.515625 214.894531 138.503906 215.441406 C 138.496094 215.855469 138.648438 216 139.085938 215.992188 C 140.722656 215.960938 142.355469 215.996094 143.988281 215.960938 C 144.589844 215.949219 144.820312 216.152344 144.773438 216.753906 C 144.734375 217.25 144.757812 217.753906 144.765625 218.253906 C 144.773438 218.632812 144.613281 218.804688 144.21875 218.800781 C 141.476562 218.78125 138.730469 218.765625 135.988281 218.769531 C 135.371094 218.769531 135.15625 218.535156 135.167969 217.914062 C 135.199219 216.171875 135.140625 214.429688 135.179688 212.6875 C 135.269531 208.496094 133.066406 206.132812 129.472656 204.714844 C 126.3125 203.46875 123.292969 201.953125 120.925781 199.46875 C 119.855469 198.347656 118.933594 197.042969 118.152344 195.699219 C 116.441406 192.757812 115.351562 189.589844 114.992188 186.171875 C 114.679688 183.160156 115.109375 180.25 115.800781 177.335938 C 116.386719 174.871094 117.320312 172.5625 118.621094 170.414062 C 119.300781 169.289062 120.140625 168.242188 121.003906 167.242188 C 123.074219 164.84375 125.5625 162.957031 128.367188 161.496094 C 130.484375 160.394531 132.734375 159.683594 135.085938 159.242188 C 137.574219 158.777344 140.085938 158.867188 142.570312 158.988281 C 145.703125 159.140625 148.703125 160.058594 151.503906 161.480469 C 156.660156 164.09375 160.414062 168.085938 162.832031 173.324219 C 163.78125 175.375 164.273438 177.570312 164.476562 179.8125 C 164.652344 181.714844 164.699219 183.628906 164.78125 185.539062 C 164.914062 188.679688 163.890625 191.542969 162.625 194.335938 C 161.769531 196.230469 160.625 197.945312 159.238281 199.503906 C 156.890625 202.132812 152.976562 201.453125 151.257812 198.964844 C 150.75 198.238281 150.320312 197.449219 149.953125 196.644531 C 149.558594 195.785156 149.765625 195.109375 150.417969 194.683594 C 151.128906 194.214844 151.808594 194.335938 152.503906 195.046875 C 152.5625 195.105469 152.636719 195.140625 152.773438 195.234375 Z M 152.773438 195.234375 " fill-opacity="1" fill-rule="nonzero"/><path fill="#000000" d="M 157.90625 204.882812 C 157.90625 205.460938 157.917969 206.039062 157.90625 206.617188 C 157.882812 207.398438 157.847656 208.179688 157.796875 208.960938 C 157.769531 209.371094 157.53125 209.496094 157.105469 209.554688 C 154.269531 209.949219 152.101562 211.386719 151.597656 214.207031 C 151.328125 215.703125 151.476562 217.269531 151.453125 218.808594 C 151.445312 219.65625 151.511719 220.503906 151.476562 221.351562 C 151.394531 223.371094 151.371094 225.398438 151.136719 227.402344 C 150.980469 228.738281 150.195312 229.824219 148.96875 230.492188 C 148.574219 230.707031 148.402344 230.976562 148.4375 231.429688 C 148.664062 234.476562 145.746094 237.246094 142.871094 237.292969 C 141.0625 237.320312 139.257812 237.378906 137.449219 237.339844 C 134.628906 237.285156 131.539062 234.730469 131.59375 231.460938 C 131.601562 230.945312 131.429688 230.621094 130.972656 230.351562 C 129.375 229.410156 128.601562 227.976562 128.601562 226.125 C 128.597656 222.730469 128.527344 219.332031 128.621094 215.9375 C 128.710938 212.578125 126.476562 210.332031 123.460938 209.667969 C 122.027344 209.351562 122.042969 209.367188 122.015625 207.890625 C 121.996094 207.003906 121.894531 206.121094 121.835938 205.234375 C 121.828125 205.132812 121.871094 205.03125 121.90625 204.847656 C 122.515625 205.175781 123.070312 205.5 123.644531 205.773438 C 124.980469 206.410156 126.390625 206.90625 127.652344 207.660156 C 130.300781 209.25 131.847656 211.542969 131.808594 214.765625 C 131.765625 218.273438 131.800781 221.777344 131.800781 225.285156 C 131.800781 226.984375 132.574219 227.757812 134.269531 227.757812 C 138.058594 227.761719 141.847656 227.761719 145.636719 227.757812 C 147.347656 227.757812 148.128906 226.992188 148.136719 225.222656 C 148.152344 221.609375 148.117188 217.992188 148.152344 214.378906 C 148.183594 211.292969 149.699219 209.039062 152.320312 207.535156 C 153.617188 206.792969 155.015625 206.226562 156.355469 205.5625 C 156.816406 205.332031 157.246094 205.050781 157.691406 204.792969 C 157.761719 204.824219 157.835938 204.855469 157.90625 204.882812 Z M 139.988281 230.847656 C 139.988281 230.855469 139.988281 230.863281 139.988281 230.871094 C 138.464844 230.871094 136.945312 230.878906 135.421875 230.867188 C 134.882812 230.863281 134.746094 231.136719 134.792969 231.609375 C 134.910156 232.742188 136.066406 233.847656 137.226562 233.863281 C 139.03125 233.886719 140.835938 233.890625 142.640625 233.863281 C 143.886719 233.84375 144.9375 232.894531 145.128906 231.691406 C 145.230469 231.050781 145.070312 230.851562 144.425781 230.851562 C 142.945312 230.84375 141.46875 230.847656 139.988281 230.847656 Z M 139.988281 230.847656 " fill-opacity="1" fill-rule="nonzero"/><path fill="#000000" d="M 157.351562 181.230469 C 157.667969 180.109375 157.84375 178.988281 157.632812 177.773438 C 157.121094 174.8125 154.140625 172.640625 151.652344 172.3125 C 150.46875 172.15625 149.242188 172.253906 148.035156 172.308594 C 147.230469 172.347656 146.660156 173.101562 146.792969 173.917969 C 146.871094 174.378906 147.042969 174.847656 147.273438 175.257812 C 147.472656 175.621094 147.757812 176.015625 148.285156 175.585938 C 148.398438 175.496094 148.621094 175.535156 148.796875 175.53125 C 149.425781 175.519531 150.066406 175.582031 150.6875 175.496094 C 151.617188 175.371094 152.417969 175.652344 153.132812 176.167969 C 154.25 176.972656 154.949219 178.078125 154.652344 179.472656 C 154.359375 180.84375 153.488281 181.835938 152.054688 182.195312 C 151.640625 182.300781 151.253906 182.3125 150.941406 181.90625 C 150.414062 181.21875 149.644531 181.070312 148.925781 181.464844 C 148.171875 181.878906 147.835938 182.671875 148.082031 183.453125 C 148.421875 184.539062 149.585938 185.40625 150.792969 185.496094 C 153.246094 185.683594 155.144531 184.722656 156.582031 182.765625 C 156.679688 182.632812 156.742188 182.523438 156.875 182.375 C 157.007812 182.195312 157.042969 182.132812 157.167969 181.839844 " fill-opacity="1" fill-rule="nonzero"/><path fill="#000000" d="M 139.347656 183.9375 C 139.347656 181.585938 139.371094 179.230469 139.335938 176.878906 C 139.320312 175.914062 139.164062 174.953125 138.324219 174.296875 C 138.039062 174.074219 137.699219 173.910156 137.363281 173.769531 C 136.429688 173.378906 135.699219 172.828125 135.523438 171.75 C 135.40625 171.023438 135.800781 170.195312 136.4375 169.882812 C 137.023438 169.601562 137.613281 169.734375 138.007812 170.253906 C 138.21875 170.527344 138.410156 170.820312 138.625 171.09375 C 139.390625 172.078125 140.628906 172.0625 141.386719 171.058594 C 141.53125 170.871094 141.683594 170.671875 141.769531 170.453125 C 141.976562 169.945312 142.324219 169.707031 142.875 169.742188 C 143.449219 169.777344 143.941406 169.929688 144.246094 170.46875 C 144.890625 171.621094 144.300781 173.375 143.007812 173.6875 C 141.121094 174.148438 140.554688 175.5 140.59375 177.125 C 140.644531 179.605469 140.640625 182.085938 140.664062 184.566406 C 140.683594 186.191406 140.730469 187.820312 140.726562 189.445312 C 140.726562 190.140625 140.667969 190.835938 140.570312 191.519531 C 140.542969 191.679688 140.222656 191.925781 140.066406 191.902344 C 139.820312 191.875 139.542969 191.695312 139.386719 191.496094 C 139.28125 191.355469 139.347656 191.074219 139.347656 190.855469 C 139.347656 188.554688 139.347656 186.246094 139.347656 183.9375 Z M 139.347656 183.9375 " fill-opacity="1" fill-rule="nonzero"/><path fill="#000000" d="M 136.886719 178.828125 C 137.011719 179.363281 137.132812 179.671875 137.144531 179.988281 C 137.207031 181.867188 137.503906 183.753906 137.019531 185.621094 C 136.714844 186.792969 136.261719 187.867188 135.390625 188.761719 C 134.363281 189.816406 133.269531 190.75 131.851562 191.242188 C 131.382812 191.40625 131.03125 191.382812 130.703125 190.972656 C 130.171875 190.3125 129.601562 189.6875 129.0625 189.03125 C 128.769531 188.675781 128.96875 188.53125 129.332031 188.394531 C 130.28125 188.042969 131.300781 187.78125 132.128906 187.238281 C 133.945312 186.058594 134.425781 184.191406 134.210938 182.152344 C 134.140625 181.507812 134.230469 181.0625 134.707031 180.664062 C 135.398438 180.085938 136.082031 179.503906 136.886719 178.828125 Z M 136.886719 178.828125 " fill-opacity="1" fill-rule="nonzero"/><path fill="#000000" d="M 123.355469 178.828125 C 123.320312 178.277344 123.417969 175.53125 123.457031 175.21875 C 123.6875 173.351562 123.871094 173.078125 124.300781 172.097656 C 124.785156 170.988281 125.402344 170 126.402344 169.253906 C 127.585938 168.371094 128.808594 167.625 130.289062 167.359375 C 130.773438 167.273438 131.121094 167.351562 131.382812 167.808594 C 131.800781 168.546875 131.667969 168.128906 132.097656 168.859375 C 132.328125 169.253906 132.113281 169.605469 131.730469 169.683594 C 130.738281 169.878906 129.691406 169.980469 128.785156 170.382812 C 126.804688 171.261719 126.28125 173.902344 126.167969 175.945312 C 126.136719 176.597656 126.453125 177.75 125.917969 178.066406 C 125.144531 178.527344 124.257812 178.285156 123.355469 178.828125 Z M 123.355469 178.828125 " fill-opacity="1" fill-rule="nonzero"/><path fill="#000000" d="M 139.941406 221.949219 C 141.308594 221.949219 142.679688 221.964844 144.046875 221.941406 C 144.582031 221.929688 144.804688 222.117188 144.769531 222.660156 C 144.738281 223.179688 144.753906 223.703125 144.761719 224.222656 C 144.769531 224.609375 144.589844 224.757812 144.207031 224.753906 C 141.46875 224.734375 138.730469 224.71875 135.992188 224.726562 C 135.378906 224.730469 135.117188 224.523438 135.171875 223.894531 C 135.203125 223.527344 135.167969 223.15625 135.148438 222.789062 C 135.109375 221.984375 135.128906 221.953125 135.964844 221.949219 C 137.289062 221.945312 138.617188 221.949219 139.941406 221.949219 Z M 139.941406 221.949219 " fill-opacity="1" fill-rule="nonzero"/><path fill="#000000" d="M 129.113281 185.503906 C 127.519531 185.5 126.375 185.027344 125.308594 184.304688 C 124.914062 184.039062 124.867188 183.757812 125.15625 183.386719 C 125.53125 182.910156 125.898438 182.429688 126.261719 181.945312 C 126.460938 181.675781 126.65625 181.605469 126.976562 181.789062 C 127.308594 181.980469 127.6875 182.15625 128.058594 182.199219 C 128.335938 182.234375 128.71875 182.128906 128.921875 181.941406 C 129.910156 181.027344 130.8125 180.957031 131.554688 181.820312 C 132.378906 182.773438 132.277344 183.789062 131.195312 184.78125 C 130.570312 185.351562 129.855469 185.515625 129.113281 185.503906 Z M 129.113281 185.503906 " fill-opacity="1" fill-rule="nonzero"/><path fill="#000000" d="M 132.265625 198.957031 C 130.671875 198.855469 129.214844 198.480469 128.195312 197.691406 C 126.09375 196.90625 122.628906 192.570312 122.9375 192.21875 C 123.34375 191.765625 124.167969 191.40625 124.554688 190.941406 C 124.769531 190.6875 126.578125 194.757812 129.234375 195.339844 C 129.558594 195.550781 131.035156 195.527344 131.40625 195.59375 C 131.683594 195.644531 132.070312 195.5625 132.28125 195.386719 C 133.324219 194.535156 134.230469 194.519531 134.917969 195.421875 C 135.6875 196.421875 135.523438 197.429688 134.382812 198.355469 C 133.726562 198.890625 133.003906 199.007812 132.265625 198.957031 Z M 132.265625 198.957031 " fill-opacity="1" fill-rule="nonzero"/><path fill="#000000" d="M 184.363281 192.007812 C 183.289062 191.421875 182.449219 190.617188 181.839844 189.585938 C 181.230469 188.554688 180.925781 187.394531 180.925781 186.097656 C 180.925781 184.804688 181.234375 183.640625 181.847656 182.609375 C 182.464844 181.582031 183.308594 180.773438 184.382812 180.1875 C 185.457031 179.605469 186.660156 179.3125 187.992188 179.3125 C 189.074219 179.3125 190.058594 179.5 190.953125 179.878906 C 191.84375 180.253906 192.597656 180.800781 193.214844 181.519531 L 191.632812 183.007812 C 190.675781 181.976562 189.5 181.460938 188.105469 181.460938 C 187.203125 181.460938 186.390625 181.660156 185.675781 182.054688 C 184.957031 182.453125 184.398438 183 183.996094 183.703125 C 183.59375 184.410156 183.394531 185.207031 183.394531 186.097656 C 183.394531 186.992188 183.59375 187.789062 183.996094 188.492188 C 184.398438 189.195312 184.957031 189.746094 185.675781 190.144531 C 186.390625 190.539062 187.199219 190.738281 188.105469 190.738281 C 189.5 190.738281 190.675781 190.214844 191.632812 189.171875 L 193.214844 190.679688 C 192.597656 191.398438 191.839844 191.941406 190.945312 192.320312 C 190.046875 192.695312 189.054688 192.886719 187.976562 192.886719 C 186.644531 192.886719 185.441406 192.59375 184.363281 192.007812 Z M 184.363281 192.007812 " fill-opacity="1" fill-rule="nonzero"/><path fill="#000000" d="M 196.738281 192.167969 C 195.921875 191.730469 195.285156 191.117188 194.824219 190.332031 C 194.367188 189.546875 194.136719 188.65625 194.136719 187.664062 C 194.136719 186.671875 194.367188 185.789062 194.824219 185.007812 C 195.285156 184.226562 195.921875 183.617188 196.738281 183.179688 C 197.554688 182.738281 198.472656 182.519531 199.492188 182.519531 C 200.523438 182.519531 201.445312 182.738281 202.261719 183.179688 C 203.078125 183.621094 203.714844 184.230469 204.175781 185.007812 C 204.632812 185.785156 204.863281 186.671875 204.863281 187.664062 C 204.863281 188.660156 204.632812 189.546875 204.175781 190.332031 C 203.714844 191.117188 203.078125 191.730469 202.261719 192.167969 C 201.445312 192.609375 200.523438 192.828125 199.492188 192.828125 C 198.472656 192.828125 197.554688 192.609375 196.738281 192.167969 Z M 201.640625 189.945312 C 202.207031 189.367188 202.488281 188.605469 202.488281 187.664062 C 202.488281 186.722656 202.207031 185.960938 201.640625 185.382812 C 201.074219 184.804688 200.359375 184.515625 199.492188 184.515625 C 198.625 184.515625 197.910156 184.804688 197.351562 185.382812 C 196.792969 185.960938 196.511719 186.722656 196.511719 187.664062 C 196.511719 188.605469 196.792969 189.367188 197.351562 189.945312 C 197.910156 190.523438 198.625 190.8125 199.492188 190.8125 C 200.359375 190.8125 201.074219 190.523438 201.640625 189.945312 Z M 201.640625 189.945312 " fill-opacity="1" fill-rule="nonzero"/><path fill="#000000" d="M 216.984375 178.710938 L 216.984375 192.695312 L 214.71875 192.695312 L 214.71875 191.398438 C 214.332031 191.875 213.847656 192.234375 213.277344 192.472656 C 212.707031 192.710938 212.074219 192.832031 211.382812 192.832031 C 210.417969 192.832031 209.546875 192.617188 208.773438 192.191406 C 208 191.765625 207.394531 191.15625 206.953125 190.371094 C 206.511719 189.585938 206.292969 188.683594 206.292969 187.667969 C 206.292969 186.648438 206.511719 185.75 206.953125 184.972656 C 207.394531 184.191406 208 183.589844 208.773438 183.160156 C 209.546875 182.734375 210.417969 182.519531 211.382812 182.519531 C 212.050781 182.519531 212.660156 182.632812 213.210938 182.859375 C 213.765625 183.085938 214.234375 183.425781 214.625 183.878906 L 214.625 178.710938 Z M 213.195312 190.425781 C 213.648438 190.167969 214.007812 189.800781 214.269531 189.320312 C 214.535156 188.84375 214.667969 188.292969 214.667969 187.664062 C 214.667969 187.035156 214.535156 186.484375 214.269531 186.003906 C 214.007812 185.527344 213.648438 185.160156 213.195312 184.902344 C 212.742188 184.644531 212.234375 184.515625 211.667969 184.515625 C 211.105469 184.515625 210.59375 184.644531 210.144531 184.902344 C 209.691406 185.160156 209.332031 185.527344 209.066406 186.003906 C 208.804688 186.484375 208.671875 187.035156 208.671875 187.664062 C 208.671875 188.292969 208.804688 188.847656 209.066406 189.320312 C 209.332031 189.800781 209.691406 190.167969 210.144531 190.425781 C 210.59375 190.683594 211.105469 190.8125 211.667969 190.8125 C 212.234375 190.8125 212.742188 190.683594 213.195312 190.425781 Z M 213.195312 190.425781 " fill-opacity="1" fill-rule="nonzero"/><path fill="#000000" d="M 229.5 188.417969 L 221.601562 188.417969 C 221.738281 189.160156 222.101562 189.746094 222.683594 190.179688 C 223.269531 190.613281 223.992188 190.832031 224.859375 190.832031 C 225.964844 190.832031 226.878906 190.464844 227.59375 189.738281 L 228.855469 191.1875 C 228.402344 191.730469 227.832031 192.136719 227.140625 192.414062 C 226.449219 192.691406 225.671875 192.828125 224.804688 192.828125 C 223.699219 192.828125 222.722656 192.609375 221.882812 192.167969 C 221.039062 191.730469 220.390625 191.117188 219.929688 190.332031 C 219.472656 189.546875 219.242188 188.65625 219.242188 187.664062 C 219.242188 186.683594 219.464844 185.804688 219.910156 185.015625 C 220.359375 184.230469 220.976562 183.621094 221.769531 183.179688 C 222.5625 182.738281 223.453125 182.519531 224.445312 182.519531 C 225.425781 182.519531 226.300781 182.734375 227.074219 183.167969 C 227.847656 183.601562 228.449219 184.210938 228.882812 185 C 229.316406 185.785156 229.535156 186.691406 229.535156 187.722656 C 229.535156 187.882812 229.523438 188.117188 229.5 188.417969 Z M 222.535156 185.070312 C 222.011719 185.519531 221.695312 186.113281 221.582031 186.855469 L 227.292969 186.855469 C 227.191406 186.125 226.886719 185.535156 226.371094 185.082031 C 225.855469 184.628906 225.214844 184.402344 224.449219 184.402344 C 223.695312 184.402344 223.054688 184.625 222.535156 185.070312 Z M 222.535156 185.070312 " fill-opacity="1" fill-rule="nonzero"/><path fill="#000000" d="M 237.625 182.519531 L 237.625 184.761719 C 237.421875 184.722656 237.238281 184.703125 237.074219 184.703125 C 236.15625 184.703125 235.441406 184.972656 234.925781 185.503906 C 234.410156 186.039062 234.15625 186.808594 234.15625 187.8125 L 234.15625 192.695312 L 231.800781 192.695312 L 231.800781 182.628906 L 234.042969 182.628906 L 234.042969 184.101562 C 234.71875 183.046875 235.914062 182.519531 237.625 182.519531 Z M 237.625 182.519531 " fill-opacity="1" fill-rule="nonzero"/><path fill="#000000" d="M 239.753906 179.503906 L 242.203125 179.503906 L 242.203125 192.695312 L 239.753906 192.695312 Z M 239.753906 179.503906 " fill-opacity="1" fill-rule="nonzero"/><path fill="#000000" d="M 254.304688 183.628906 C 255.070312 184.371094 255.457031 185.472656 255.457031 186.929688 L 255.457031 192.695312 L 253.097656 192.695312 L 253.097656 187.230469 C 253.097656 186.351562 252.894531 185.6875 252.476562 185.242188 C 252.0625 184.796875 251.472656 184.570312 250.707031 184.570312 C 249.839844 184.570312 249.152344 184.832031 248.652344 185.355469 C 248.148438 185.875 247.898438 186.625 247.898438 187.605469 L 247.898438 192.695312 L 245.542969 192.695312 L 245.542969 182.628906 L 247.785156 182.628906 L 247.785156 183.929688 C 248.171875 183.464844 248.664062 183.113281 249.253906 182.875 C 249.84375 182.636719 250.511719 182.515625 251.253906 182.515625 C 252.519531 182.519531 253.539062 182.890625 254.304688 183.628906 Z M 254.304688 183.628906 " fill-opacity="1" fill-rule="nonzero"/><path fill="#000000" d="M 259.167969 192.507812 C 258.386719 192.292969 257.765625 192.023438 257.300781 191.695312 L 258.207031 189.90625 C 258.65625 190.207031 259.199219 190.449219 259.835938 190.632812 C 260.46875 190.816406 261.09375 190.90625 261.710938 190.90625 C 263.117188 190.90625 263.820312 190.535156 263.820312 189.792969 C 263.820312 189.441406 263.644531 189.195312 263.285156 189.058594 C 262.925781 188.921875 262.351562 188.789062 261.558594 188.664062 C 260.730469 188.539062 260.054688 188.394531 259.53125 188.230469 C 259.011719 188.066406 258.558594 187.78125 258.175781 187.375 C 257.792969 186.964844 257.601562 186.398438 257.601562 185.667969 C 257.601562 184.714844 258 183.949219 258.796875 183.378906 C 259.59375 182.804688 260.671875 182.519531 262.03125 182.519531 C 262.722656 182.519531 263.414062 182.601562 264.105469 182.757812 C 264.796875 182.914062 265.363281 183.125 265.800781 183.390625 L 264.898438 185.179688 C 264.042969 184.675781 263.082031 184.425781 262.011719 184.425781 C 261.320312 184.425781 260.796875 184.527344 260.441406 184.734375 C 260.082031 184.941406 259.902344 185.214844 259.902344 185.554688 C 259.902344 185.933594 260.09375 186.199219 260.476562 186.355469 C 260.859375 186.515625 261.453125 186.660156 262.257812 186.800781 C 263.0625 186.925781 263.722656 187.070312 264.238281 187.234375 C 264.753906 187.398438 265.195312 187.671875 265.566406 188.0625 C 265.9375 188.453125 266.125 189.003906 266.125 189.722656 C 266.125 190.664062 265.714844 191.417969 264.898438 191.984375 C 264.082031 192.546875 262.96875 192.832031 261.5625 192.832031 C 260.742188 192.828125 259.945312 192.722656 259.167969 192.507812 Z M 259.167969 192.507812 " fill-opacity="1" fill-rule="nonzero"/><path fill="#000000" d="M 268.273438 180.566406 C 267.984375 180.296875 267.839844 179.960938 267.839844 179.558594 C 267.839844 179.15625 267.984375 178.820312 268.273438 178.550781 C 268.5625 178.277344 268.917969 178.144531 269.347656 178.144531 C 269.773438 178.144531 270.132812 178.273438 270.421875 178.53125 C 270.710938 178.789062 270.855469 179.113281 270.855469 179.5 C 270.855469 179.917969 270.714844 180.265625 270.429688 180.546875 C 270.148438 180.832031 269.785156 180.972656 269.347656 180.972656 C 268.917969 180.972656 268.5625 180.835938 268.273438 180.566406 Z M 268.160156 182.632812 L 270.515625 182.632812 L 270.515625 192.695312 L 268.160156 192.695312 Z M 268.160156 182.632812 " fill-opacity="1" fill-rule="nonzero"/><path fill="#000000" d="M 283.59375 182.632812 L 283.59375 191.171875 C 283.59375 194.714844 281.785156 196.484375 278.167969 196.484375 C 277.199219 196.484375 276.28125 196.363281 275.414062 196.117188 C 274.546875 195.871094 273.832031 195.519531 273.265625 195.054688 L 274.320312 193.28125 C 274.761719 193.644531 275.316406 193.9375 275.988281 194.15625 C 276.660156 194.375 277.34375 194.488281 278.035156 194.488281 C 279.140625 194.488281 279.949219 194.234375 280.464844 193.734375 C 280.980469 193.230469 281.238281 192.464844 281.238281 191.433594 L 281.238281 190.90625 C 280.835938 191.347656 280.347656 191.679688 279.769531 191.902344 C 279.191406 192.128906 278.554688 192.242188 277.863281 192.242188 C 276.910156 192.242188 276.046875 192.039062 275.273438 191.628906 C 274.5 191.222656 273.890625 190.648438 273.445312 189.90625 C 273 189.164062 272.777344 188.316406 272.777344 187.359375 C 272.777344 186.40625 273 185.5625 273.445312 184.828125 C 273.890625 184.089844 274.5 183.523438 275.273438 183.121094 C 276.046875 182.71875 276.910156 182.519531 277.863281 182.519531 C 278.59375 182.519531 279.257812 182.636719 279.855469 182.875 C 280.449219 183.117188 280.949219 183.480469 281.351562 183.96875 L 281.351562 182.628906 L 283.59375 182.628906 Z M 280.421875 189.445312 C 280.992188 188.914062 281.277344 188.21875 281.277344 187.363281 C 281.277344 186.519531 280.992188 185.835938 280.421875 185.308594 C 279.847656 184.78125 279.117188 184.515625 278.222656 184.515625 C 277.320312 184.515625 276.582031 184.78125 276.007812 185.308594 C 275.4375 185.835938 275.152344 186.519531 275.152344 187.363281 C 275.152344 188.214844 275.4375 188.910156 276.007812 189.445312 C 276.582031 189.980469 277.320312 190.246094 278.222656 190.246094 C 279.117188 190.246094 279.847656 189.980469 280.421875 189.445312 Z M 280.421875 189.445312 " fill-opacity="1" fill-rule="nonzero"/><path fill="#000000" d="M 295.453125 183.628906 C 296.21875 184.371094 296.601562 185.472656 296.601562 186.929688 L 296.601562 192.695312 L 294.246094 192.695312 L 294.246094 187.230469 C 294.246094 186.351562 294.039062 185.6875 293.625 185.242188 C 293.210938 184.796875 292.617188 184.570312 291.851562 184.570312 C 290.984375 184.570312 290.300781 184.832031 289.796875 185.355469 C 289.296875 185.875 289.042969 186.625 289.042969 187.605469 L 289.042969 192.695312 L 286.6875 192.695312 L 286.6875 178.710938 L 289.042969 178.710938 L 289.042969 183.796875 C 289.433594 183.382812 289.914062 183.066406 290.484375 182.847656 C 291.058594 182.628906 291.695312 182.515625 292.398438 182.515625 C 293.667969 182.519531 294.6875 182.890625 295.453125 183.628906 Z M 295.453125 183.628906 " fill-opacity="1" fill-rule="nonzero"/><path fill="#000000" d="M 305.648438 192.148438 C 305.375 192.375 305.035156 192.546875 304.640625 192.660156 C 304.246094 192.769531 303.828125 192.828125 303.386719 192.828125 C 302.28125 192.828125 301.429688 192.539062 300.824219 191.960938 C 300.222656 191.382812 299.921875 190.542969 299.921875 189.433594 L 299.921875 184.589844 L 298.261719 184.589844 L 298.261719 182.707031 L 299.921875 182.707031 L 299.921875 180.40625 L 302.277344 180.40625 L 302.277344 182.707031 L 304.972656 182.707031 L 304.972656 184.589844 L 302.277344 184.589844 L 302.277344 189.378906 C 302.277344 189.867188 302.394531 190.242188 302.632812 190.5 C 302.875 190.753906 303.21875 190.882812 303.671875 190.882812 C 304.199219 190.882812 304.636719 190.746094 304.988281 190.46875 Z M 305.648438 192.148438 " fill-opacity="1" fill-rule="nonzero"/><path fill="#000000" d="M 308.304688 192.507812 C 307.527344 192.292969 306.90625 192.023438 306.441406 191.695312 L 307.34375 189.90625 C 307.796875 190.207031 308.339844 190.449219 308.972656 190.632812 C 309.609375 190.816406 310.234375 190.90625 310.847656 190.90625 C 312.257812 190.90625 312.960938 190.535156 312.960938 189.792969 C 312.960938 189.441406 312.78125 189.195312 312.421875 189.058594 C 312.066406 188.921875 311.488281 188.789062 310.699219 188.664062 C 309.867188 188.539062 309.191406 188.394531 308.671875 188.230469 C 308.148438 188.066406 307.699219 187.78125 307.316406 187.375 C 306.929688 186.964844 306.738281 186.398438 306.738281 185.667969 C 306.738281 184.714844 307.136719 183.949219 307.9375 183.378906 C 308.734375 182.804688 309.8125 182.519531 311.171875 182.519531 C 311.863281 182.519531 312.550781 182.601562 313.242188 182.757812 C 313.933594 182.914062 314.5 183.125 314.941406 183.390625 L 314.035156 185.179688 C 313.179688 184.675781 312.21875 184.425781 311.152344 184.425781 C 310.460938 184.425781 309.9375 184.527344 309.578125 184.734375 C 309.21875 184.941406 309.042969 185.214844 309.042969 185.554688 C 309.042969 185.933594 309.234375 186.199219 309.617188 186.355469 C 310 186.515625 310.59375 186.660156 311.398438 186.800781 C 312.203125 186.925781 312.863281 187.070312 313.378906 187.234375 C 313.894531 187.398438 314.335938 187.671875 314.707031 188.0625 C 315.078125 188.453125 315.261719 189.003906 315.261719 189.722656 C 315.261719 190.664062 314.855469 191.417969 314.035156 191.984375 C 313.21875 192.546875 312.109375 192.832031 310.699219 192.832031 C 309.882812 192.828125 309.085938 192.722656 308.304688 192.507812 Z M 308.304688 192.507812 " fill-opacity="1" fill-rule="nonzero"/></svg>