<svg xmlns="http://www.w3.org/2000/svg" xmlns:xlink="http://www.w3.org/1999/xlink" width="500" zoomAndPan="magnify" viewBox="0 0 375 374.999991" height="500" preserveAspectRatio="xMidYMid meet" version="1.0"><defs><clipPath id="ad25a09699"><path d="M 68.375 60.265625 L 146 60.265625 L 146 144 L 68.375 144 Z M 68.375 60.265625 " clip-rule="nonzero"/></clipPath></defs><rect x="-37.5" width="450" fill="#ffffff" y="-37.499999" height="449.999989" fill-opacity="1"/><rect x="-37.5" width="450" fill="#ffffff" y="-37.499999" height="449.999989" fill-opacity="1"/><g clip-path="url(#ad25a09699)"><path fill="#000000" d="M 131.15625 64.105469 C 125.554688 61.78125 119.476562 60.617188 112.925781 60.617188 C 106.613281 60.617188 100.753906 61.664062 95.347656 63.753906 C 89.941406 65.84375 85.242188 68.824219 81.261719 72.691406 C 77.273438 76.558594 74.199219 81.074219 72.027344 86.246094 C 69.855469 91.417969 68.773438 97.078125 68.773438 103.234375 C 68.773438 109.386719 69.855469 115.054688 72.027344 120.21875 C 74.199219 125.386719 77.257812 129.90625 81.203125 133.773438 C 85.148438 137.644531 89.824219 140.621094 95.226562 142.714844 C 96.414062 143.167969 97.625 143.570312 98.855469 143.921875 C 98.828125 139.707031 98.820312 134.625 98.832031 129.878906 C 96.148438 128.539062 93.742188 126.84375 91.621094 124.777344 C 88.855469 122.09375 86.726562 118.9375 85.226562 115.308594 C 83.726562 111.679688 82.976562 107.652344 82.976562 103.234375 C 82.976562 98.816406 83.726562 94.789062 85.226562 91.160156 C 86.726562 87.53125 88.855469 84.371094 91.621094 81.6875 C 94.378906 79.007812 97.617188 76.9375 101.324219 75.476562 C 105.03125 74.015625 109.136719 73.28125 113.636719 73.28125 C 117.972656 73.28125 122.042969 74.09375 125.828125 75.710938 C 129.617188 77.328125 133.007812 79.792969 136.007812 83.109375 L 145.242188 74.230469 C 141.457031 69.808594 136.761719 66.433594 131.15625 64.105469 Z M 131.15625 64.105469 " fill-opacity="1" fill-rule="nonzero"/></g><path fill="#000000" d="M 136.007812 123.238281 C 134.285156 125.1875 132.433594 126.839844 130.449219 128.203125 C 130.476562 132.554688 130.480469 137.765625 130.46875 142.566406 C 130.699219 142.476562 130.929688 142.390625 131.15625 142.296875 C 136.761719 139.929688 141.457031 136.539062 145.242188 132.117188 Z M 136.007812 123.238281 " fill-opacity="1" fill-rule="nonzero"/><path fill="#000000" d="M 125.773438 111.039062 C 125.992188 110.113281 125.628906 109.375 125.171875 108.71875 C 124.507812 107.753906 123.574219 107.246094 122.347656 107.378906 C 121.515625 107.46875 120.542969 108.179688 120.316406 108.988281 C 120.0625 109.878906 120.386719 110.621094 121.03125 111.242188 C 121.121094 111.335938 121.234375 111.425781 121.355469 111.46875 C 122.628906 111.890625 122.414062 113.15625 122.8125 114.070312 C 122.835938 114.117188 122.550781 114.402344 122.425781 114.390625 C 118.828125 114.148438 116.519531 110.972656 117.882812 107.667969 C 119.113281 104.679688 123.027344 103.894531 125.589844 105.519531 C 127.421875 106.683594 128.261719 108.371094 128.390625 110.429688 C 128.4375 111.152344 128.121094 111.894531 127.949219 112.625 C 127.902344 112.835938 127.785156 113.03125 127.644531 113.359375 C 128.429688 113.332031 128.996094 113.058594 129.476562 112.652344 C 130.652344 111.667969 131.398438 110.460938 131.203125 108.847656 C 131.152344 108.414062 131.304688 108.082031 131.644531 107.804688 C 134.097656 105.804688 134.308594 101.960938 132.574219 99.632812 C 132.285156 99.246094 132.21875 98.929688 132.378906 98.5 C 133.082031 96.609375 132.820312 94.796875 131.789062 93.113281 C 131.390625 92.464844 130.777344 91.953125 130.273438 91.371094 C 130.097656 91.164062 129.859375 90.9375 129.824219 90.695312 C 129.566406 88.925781 128.648438 87.578125 127.066406 86.847656 C 125.8125 86.265625 124.820312 85.515625 123.894531 84.476562 C 121.964844 82.320312 116.738281 82.066406 115.046875 86.023438 C 114.902344 86.367188 114.800781 86.726562 114.632812 87.214844 C 114.539062 86.933594 114.464844 86.757812 114.421875 86.574219 C 113.945312 84.496094 112.089844 83.035156 109.945312 82.976562 C 108.539062 82.933594 107.230469 83.152344 106.035156 83.917969 C 105.304688 84.378906 104.855469 85.066406 104.425781 85.789062 C 104.28125 86.03125 103.96875 86.304688 103.71875 86.328125 C 101.894531 86.460938 99.773438 88.472656 99.597656 90.726562 C 99.582031 90.925781 99.460938 91.175781 99.304688 91.285156 C 97.890625 92.265625 97.050781 93.621094 96.714844 95.28125 C 96.5 96.320312 96.46875 97.390625 96.863281 98.410156 C 97.078125 98.964844 96.992188 99.359375 96.625 99.851562 C 95.574219 101.273438 95.398438 102.898438 95.753906 104.601562 C 96.015625 105.855469 96.617188 106.902344 97.554688 107.753906 C 97.933594 108.101562 98.109375 108.480469 98.0625 108.996094 C 97.863281 111.101562 100.304688 113.679688 102.203125 113.933594 C 102.484375 113.96875 102.777344 114.265625 102.976562 114.511719 C 103.902344 115.667969 105.117188 116.363281 106.511719 116.757812 C 110.003906 117.734375 112.269531 119.964844 113.121094 123.476562 C 113.410156 124.667969 113.296875 125.957031 113.355469 127.199219 C 113.375 127.671875 113.371094 128.144531 113.359375 128.621094 C 113.351562 128.980469 113.484375 129.105469 113.867188 129.097656 C 115.289062 129.070312 116.710938 129.101562 118.128906 129.070312 C 118.652344 129.0625 118.855469 129.238281 118.8125 129.761719 C 118.78125 130.195312 118.800781 130.632812 118.808594 131.066406 C 118.8125 131.394531 118.675781 131.546875 118.332031 131.542969 C 115.945312 131.527344 113.554688 131.511719 111.171875 131.515625 C 110.632812 131.515625 110.445312 131.3125 110.457031 130.769531 C 110.484375 129.253906 110.433594 127.738281 110.46875 126.222656 C 110.546875 122.578125 108.628906 120.519531 105.503906 119.289062 C 102.753906 118.203125 100.125 116.886719 98.066406 114.722656 C 97.136719 113.75 96.332031 112.613281 95.652344 111.445312 C 94.164062 108.886719 93.214844 106.128906 92.902344 103.15625 C 92.632812 100.535156 93.007812 98.003906 93.609375 95.46875 C 94.117188 93.324219 94.929688 91.316406 96.0625 89.445312 C 96.652344 88.46875 97.382812 87.554688 98.132812 86.6875 C 99.933594 84.601562 102.101562 82.957031 104.539062 81.6875 C 106.382812 80.730469 108.339844 80.109375 110.386719 79.726562 C 112.550781 79.320312 114.734375 79.398438 116.898438 79.503906 C 119.621094 79.636719 122.234375 80.4375 124.667969 81.675781 C 129.15625 83.949219 132.421875 87.421875 134.523438 91.976562 C 135.351562 93.761719 135.777344 95.671875 135.957031 97.621094 C 136.109375 99.277344 136.148438 100.941406 136.21875 102.605469 C 136.335938 105.335938 135.445312 107.828125 134.34375 110.257812 C 133.601562 111.90625 132.605469 113.398438 131.398438 114.753906 C 129.355469 117.042969 125.949219 116.449219 124.453125 114.285156 C 124.011719 113.652344 123.640625 112.964844 123.320312 112.265625 C 122.976562 111.519531 123.15625 110.929688 123.722656 110.5625 C 124.34375 110.152344 124.933594 110.257812 125.539062 110.875 C 125.589844 110.925781 125.65625 110.957031 125.773438 111.039062 Z M 125.773438 111.039062 " fill-opacity="1" fill-rule="nonzero"/><path fill="#000000" d="M 130.238281 119.433594 C 130.238281 119.9375 130.25 120.441406 130.238281 120.941406 C 130.21875 121.621094 130.1875 122.300781 130.144531 122.980469 C 130.121094 123.339844 129.914062 123.449219 129.542969 123.5 C 127.074219 123.839844 125.1875 125.09375 124.75 127.546875 C 124.515625 128.847656 124.644531 130.210938 124.625 131.550781 C 124.617188 132.285156 124.675781 133.023438 124.644531 133.761719 C 124.574219 135.519531 124.554688 137.28125 124.351562 139.027344 C 124.214844 140.1875 123.53125 141.132812 122.464844 141.714844 C 122.121094 141.902344 121.972656 142.136719 122 142.53125 C 122.199219 145.179688 119.660156 147.589844 117.160156 147.628906 C 115.585938 147.65625 114.015625 147.707031 112.441406 147.671875 C 109.988281 147.625 107.300781 145.402344 107.347656 142.558594 C 107.355469 142.109375 107.203125 141.828125 106.808594 141.589844 C 105.417969 140.773438 104.742188 139.527344 104.742188 137.914062 C 104.742188 134.960938 104.679688 132.003906 104.761719 129.050781 C 104.839844 126.128906 102.894531 124.175781 100.273438 123.597656 C 99.023438 123.320312 99.039062 123.335938 99.015625 122.050781 C 98.996094 121.277344 98.910156 120.511719 98.859375 119.738281 C 98.851562 119.652344 98.886719 119.5625 98.917969 119.402344 C 99.449219 119.6875 99.933594 119.972656 100.429688 120.207031 C 101.59375 120.761719 102.820312 121.195312 103.917969 121.851562 C 106.222656 123.234375 107.566406 125.226562 107.535156 128.03125 C 107.496094 131.082031 107.527344 134.132812 107.527344 137.183594 C 107.527344 138.664062 108.199219 139.335938 109.675781 139.335938 C 112.972656 139.339844 116.269531 139.339844 119.566406 139.335938 C 121.054688 139.335938 121.734375 138.667969 121.738281 137.128906 C 121.753906 133.984375 121.722656 130.839844 121.753906 127.695312 C 121.78125 125.011719 123.097656 123.050781 125.378906 121.742188 C 126.507812 121.097656 127.722656 120.601562 128.890625 120.023438 C 129.292969 119.824219 129.664062 119.578125 130.050781 119.355469 C 130.113281 119.382812 130.179688 119.410156 130.238281 119.433594 Z M 114.652344 142.023438 C 114.652344 142.03125 114.652344 142.035156 114.652344 142.042969 C 113.324219 142.042969 112.003906 142.050781 110.679688 142.039062 C 110.207031 142.035156 110.089844 142.273438 110.128906 142.6875 C 110.234375 143.671875 111.238281 144.632812 112.246094 144.648438 C 113.816406 144.667969 115.386719 144.671875 116.957031 144.648438 C 118.042969 144.628906 118.957031 143.804688 119.121094 142.757812 C 119.210938 142.199219 119.070312 142.027344 118.511719 142.027344 C 117.222656 142.019531 115.9375 142.023438 114.652344 142.023438 Z M 114.652344 142.023438 " fill-opacity="1" fill-rule="nonzero"/><path fill="#000000" d="M 129.757812 98.855469 C 130.03125 97.882812 130.183594 96.90625 130 95.847656 C 129.554688 93.273438 126.964844 91.382812 124.796875 91.097656 C 123.769531 90.960938 122.703125 91.046875 121.652344 91.09375 C 120.953125 91.128906 120.457031 91.785156 120.570312 92.496094 C 120.636719 92.894531 120.789062 93.304688 120.988281 93.660156 C 121.160156 93.976562 121.410156 94.320312 121.867188 93.945312 C 121.96875 93.867188 122.160156 93.902344 122.3125 93.898438 C 122.859375 93.886719 123.417969 93.941406 123.957031 93.867188 C 124.769531 93.757812 125.464844 94.003906 126.085938 94.453125 C 127.058594 95.152344 127.667969 96.113281 127.410156 97.328125 C 127.152344 98.519531 126.394531 99.382812 125.148438 99.695312 C 124.789062 99.789062 124.453125 99.796875 124.179688 99.445312 C 123.722656 98.847656 123.050781 98.71875 122.425781 99.058594 C 121.769531 99.421875 121.476562 100.109375 121.691406 100.789062 C 121.988281 101.734375 123 102.488281 124.050781 102.566406 C 126.183594 102.730469 127.835938 101.894531 129.085938 100.191406 C 129.171875 100.078125 129.226562 99.980469 129.34375 99.851562 C 129.457031 99.695312 129.488281 99.640625 129.597656 99.386719 " fill-opacity="1" fill-rule="nonzero"/><path fill="#000000" d="M 114.09375 101.210938 C 114.09375 99.164062 114.113281 97.117188 114.082031 95.070312 C 114.070312 94.230469 113.933594 93.394531 113.203125 92.824219 C 112.953125 92.628906 112.660156 92.488281 112.367188 92.367188 C 111.554688 92.027344 110.917969 91.546875 110.765625 90.609375 C 110.664062 89.976562 111.007812 89.253906 111.5625 88.984375 C 112.070312 88.738281 112.585938 88.855469 112.925781 89.308594 C 113.109375 89.542969 113.277344 89.800781 113.464844 90.039062 C 114.128906 90.894531 115.207031 90.878906 115.867188 90.007812 C 115.992188 89.84375 116.125 89.671875 116.199219 89.480469 C 116.378906 89.039062 116.683594 88.832031 117.160156 88.863281 C 117.660156 88.890625 118.089844 89.023438 118.355469 89.492188 C 118.914062 90.496094 118.402344 92.023438 117.277344 92.292969 C 115.636719 92.695312 115.144531 93.871094 115.175781 95.285156 C 115.222656 97.441406 115.21875 99.601562 115.238281 101.757812 C 115.253906 103.171875 115.296875 104.589844 115.292969 106.003906 C 115.292969 106.609375 115.242188 107.214844 115.15625 107.808594 C 115.132812 107.945312 114.855469 108.160156 114.71875 108.140625 C 114.503906 108.117188 114.261719 107.960938 114.128906 107.789062 C 114.035156 107.664062 114.09375 107.421875 114.09375 107.230469 C 114.09375 105.226562 114.09375 103.21875 114.09375 101.210938 Z M 114.09375 101.210938 " fill-opacity="1" fill-rule="nonzero"/><path fill="#000000" d="M 111.953125 96.765625 C 112.0625 97.230469 112.167969 97.5 112.175781 97.777344 C 112.230469 99.410156 112.488281 101.050781 112.066406 102.675781 C 111.800781 103.695312 111.410156 104.628906 110.652344 105.410156 C 109.757812 106.324219 108.804688 107.136719 107.570312 107.566406 C 107.164062 107.710938 106.859375 107.6875 106.574219 107.332031 C 106.109375 106.757812 105.613281 106.214844 105.144531 105.644531 C 104.890625 105.332031 105.0625 105.207031 105.378906 105.089844 C 106.207031 104.785156 107.09375 104.554688 107.8125 104.082031 C 109.394531 103.058594 109.8125 101.433594 109.625 99.660156 C 109.5625 99.097656 109.640625 98.710938 110.054688 98.363281 C 110.65625 97.859375 111.253906 97.355469 111.953125 96.765625 Z M 111.953125 96.765625 " fill-opacity="1" fill-rule="nonzero"/><path fill="#000000" d="M 100.179688 96.765625 C 100.148438 96.289062 100.234375 93.898438 100.269531 93.625 C 100.46875 92 100.628906 91.765625 101.003906 90.910156 C 101.425781 89.945312 101.960938 89.085938 102.832031 88.4375 C 103.859375 87.667969 104.925781 87.019531 106.210938 86.789062 C 106.632812 86.714844 106.9375 86.78125 107.164062 87.179688 C 107.527344 87.820312 107.410156 87.457031 107.785156 88.09375 C 107.984375 88.4375 107.800781 88.742188 107.464844 88.8125 C 106.601562 88.980469 105.691406 89.070312 104.902344 89.417969 C 103.179688 90.183594 102.726562 92.480469 102.625 94.257812 C 102.601562 94.824219 102.875 95.828125 102.410156 96.105469 C 101.738281 96.503906 100.964844 96.292969 100.179688 96.765625 Z M 100.179688 96.765625 " fill-opacity="1" fill-rule="nonzero"/><path fill="#000000" d="M 114.609375 134.28125 C 115.800781 134.28125 116.992188 134.296875 118.179688 134.273438 C 118.648438 134.265625 118.839844 134.429688 118.808594 134.898438 C 118.78125 135.351562 118.796875 135.808594 118.804688 136.257812 C 118.808594 136.597656 118.652344 136.726562 118.320312 136.722656 C 115.9375 136.703125 113.554688 136.691406 111.175781 136.699219 C 110.640625 136.703125 110.414062 136.519531 110.460938 135.972656 C 110.488281 135.65625 110.457031 135.332031 110.441406 135.011719 C 110.40625 134.3125 110.421875 134.285156 111.148438 134.28125 C 112.300781 134.277344 113.457031 134.28125 114.609375 134.28125 Z M 114.609375 134.28125 " fill-opacity="1" fill-rule="nonzero"/><path fill="#000000" d="M 105.1875 102.574219 C 103.804688 102.570312 102.808594 102.160156 101.878906 101.53125 C 101.535156 101.300781 101.496094 101.054688 101.746094 100.730469 C 102.074219 100.316406 102.390625 99.898438 102.707031 99.476562 C 102.882812 99.242188 103.050781 99.183594 103.332031 99.34375 C 103.621094 99.507812 103.949219 99.660156 104.273438 99.699219 C 104.511719 99.730469 104.847656 99.636719 105.023438 99.476562 C 105.882812 98.679688 106.667969 98.617188 107.3125 99.371094 C 108.03125 100.199219 107.941406 101.082031 107 101.945312 C 106.457031 102.441406 105.835938 102.585938 105.1875 102.574219 Z M 105.1875 102.574219 " fill-opacity="1" fill-rule="nonzero"/><path fill="#000000" d="M 107.933594 114.277344 C 106.546875 114.191406 105.277344 113.863281 104.390625 113.175781 C 102.5625 112.496094 99.546875 108.722656 99.816406 108.417969 C 100.167969 108.023438 100.886719 107.710938 101.222656 107.304688 C 101.410156 107.085938 102.984375 110.625 105.292969 111.132812 C 105.578125 111.316406 106.863281 111.292969 107.183594 111.351562 C 107.425781 111.398438 107.761719 111.324219 107.945312 111.171875 C 108.851562 110.429688 109.640625 110.417969 110.238281 111.203125 C 110.910156 112.074219 110.765625 112.949219 109.773438 113.753906 C 109.203125 114.222656 108.574219 114.324219 107.933594 114.277344 Z M 107.933594 114.277344 " fill-opacity="1" fill-rule="nonzero"/><path fill="#000000" d="M 153.257812 108.234375 C 152.320312 107.722656 151.589844 107.023438 151.0625 106.125 C 150.53125 105.226562 150.265625 104.21875 150.265625 103.089844 C 150.265625 101.964844 150.535156 100.953125 151.066406 100.054688 C 151.605469 99.164062 152.339844 98.457031 153.273438 97.949219 C 154.207031 97.441406 155.253906 97.1875 156.414062 97.1875 C 157.355469 97.1875 158.210938 97.351562 158.988281 97.679688 C 159.765625 98.007812 160.421875 98.484375 160.957031 99.109375 L 159.582031 100.402344 C 158.75 99.503906 157.726562 99.058594 156.511719 99.058594 C 155.726562 99.058594 155.019531 99.230469 154.398438 99.574219 C 153.773438 99.921875 153.289062 100.394531 152.9375 101.007812 C 152.585938 101.621094 152.414062 102.316406 152.414062 103.089844 C 152.414062 103.867188 152.585938 104.5625 152.9375 105.175781 C 153.289062 105.785156 153.773438 106.265625 154.398438 106.613281 C 155.019531 106.953125 155.722656 107.128906 156.511719 107.128906 C 157.726562 107.128906 158.75 106.671875 159.582031 105.765625 L 160.957031 107.078125 C 160.421875 107.703125 159.761719 108.175781 158.984375 108.503906 C 158.203125 108.832031 157.339844 108.996094 156.398438 108.996094 C 155.242188 108.996094 154.195312 108.742188 153.257812 108.234375 Z M 153.257812 108.234375 " fill-opacity="1" fill-rule="nonzero"/><path fill="#000000" d="M 164.023438 108.371094 C 163.3125 107.992188 162.757812 107.457031 162.359375 106.773438 C 161.960938 106.089844 161.757812 105.316406 161.757812 104.453125 C 161.757812 103.589844 161.960938 102.824219 162.359375 102.144531 C 162.757812 101.464844 163.3125 100.933594 164.023438 100.550781 C 164.734375 100.167969 165.53125 99.976562 166.417969 99.976562 C 167.316406 99.976562 168.117188 100.167969 168.828125 100.550781 C 169.539062 100.9375 170.09375 101.464844 170.492188 102.144531 C 170.890625 102.820312 171.089844 103.589844 171.089844 104.453125 C 171.089844 105.320312 170.890625 106.089844 170.492188 106.773438 C 170.09375 107.457031 169.539062 107.992188 168.828125 108.371094 C 168.117188 108.757812 167.316406 108.945312 166.417969 108.945312 C 165.53125 108.945312 164.734375 108.757812 164.023438 108.371094 Z M 168.289062 106.4375 C 168.78125 105.933594 169.027344 105.273438 169.027344 104.453125 C 169.027344 103.632812 168.78125 102.972656 168.289062 102.46875 C 167.796875 101.964844 167.171875 101.714844 166.417969 101.714844 C 165.664062 101.714844 165.042969 101.964844 164.554688 102.46875 C 164.070312 102.972656 163.824219 103.632812 163.824219 104.453125 C 163.824219 105.273438 164.070312 105.933594 164.554688 106.4375 C 165.042969 106.941406 165.664062 107.191406 166.417969 107.191406 C 167.171875 107.191406 167.796875 106.941406 168.289062 106.4375 Z M 168.289062 106.4375 " fill-opacity="1" fill-rule="nonzero"/><path fill="#000000" d="M 181.636719 96.664062 L 181.636719 108.832031 L 179.667969 108.832031 L 179.667969 107.703125 C 179.328125 108.117188 178.910156 108.429688 178.410156 108.636719 C 177.914062 108.84375 177.367188 108.949219 176.765625 108.949219 C 175.925781 108.949219 175.167969 108.761719 174.492188 108.390625 C 173.820312 108.023438 173.292969 107.492188 172.910156 106.808594 C 172.527344 106.125 172.335938 105.339844 172.335938 104.457031 C 172.335938 103.570312 172.527344 102.789062 172.910156 102.113281 C 173.292969 101.433594 173.820312 100.910156 174.492188 100.535156 C 175.167969 100.164062 175.925781 99.976562 176.765625 99.976562 C 177.34375 99.976562 177.875 100.078125 178.355469 100.273438 C 178.835938 100.46875 179.246094 100.765625 179.585938 101.160156 L 179.585938 96.664062 Z M 178.339844 106.855469 C 178.734375 106.632812 179.046875 106.3125 179.273438 105.894531 C 179.507812 105.480469 179.621094 105 179.621094 104.453125 C 179.621094 103.90625 179.507812 103.425781 179.273438 103.007812 C 179.046875 102.59375 178.734375 102.273438 178.339844 102.050781 C 177.945312 101.828125 177.503906 101.714844 177.011719 101.714844 C 176.523438 101.714844 176.078125 101.828125 175.6875 102.050781 C 175.292969 102.273438 174.980469 102.59375 174.75 103.007812 C 174.519531 103.425781 174.40625 103.90625 174.40625 104.453125 C 174.40625 105 174.519531 105.484375 174.75 105.894531 C 174.980469 106.3125 175.292969 106.632812 175.6875 106.855469 C 176.078125 107.082031 176.523438 107.191406 177.011719 107.191406 C 177.503906 107.191406 177.945312 107.082031 178.339844 106.855469 Z M 178.339844 106.855469 " fill-opacity="1" fill-rule="nonzero"/><path fill="#000000" d="M 192.527344 105.109375 L 185.652344 105.109375 C 185.773438 105.753906 186.089844 106.265625 186.59375 106.640625 C 187.105469 107.019531 187.734375 107.210938 188.488281 107.210938 C 189.449219 107.210938 190.246094 106.890625 190.867188 106.257812 L 191.964844 107.519531 C 191.570312 107.992188 191.074219 108.34375 190.472656 108.585938 C 189.871094 108.828125 189.195312 108.945312 188.441406 108.945312 C 187.480469 108.945312 186.628906 108.757812 185.898438 108.371094 C 185.164062 107.992188 184.601562 107.457031 184.199219 106.773438 C 183.800781 106.089844 183.601562 105.316406 183.601562 104.453125 C 183.601562 103.601562 183.796875 102.835938 184.183594 102.148438 C 184.574219 101.464844 185.109375 100.9375 185.800781 100.550781 C 186.488281 100.167969 187.265625 99.976562 188.128906 99.976562 C 188.980469 99.976562 189.742188 100.164062 190.414062 100.542969 C 191.089844 100.917969 191.613281 101.449219 191.988281 102.136719 C 192.367188 102.820312 192.554688 103.605469 192.554688 104.503906 C 192.554688 104.644531 192.546875 104.847656 192.527344 105.109375 Z M 186.464844 102.195312 C 186.011719 102.585938 185.734375 103.105469 185.636719 103.75 L 190.605469 103.75 C 190.515625 103.113281 190.253906 102.601562 189.804688 102.207031 C 189.355469 101.8125 188.796875 101.617188 188.132812 101.617188 C 187.476562 101.617188 186.917969 101.808594 186.464844 102.195312 Z M 186.464844 102.195312 " fill-opacity="1" fill-rule="nonzero"/><path fill="#000000" d="M 199.59375 99.976562 L 199.59375 101.929688 C 199.417969 101.894531 199.257812 101.878906 199.117188 101.878906 C 198.316406 101.878906 197.695312 102.113281 197.246094 102.574219 C 196.796875 103.039062 196.578125 103.710938 196.578125 104.582031 L 196.578125 108.832031 L 194.527344 108.832031 L 194.527344 100.074219 L 196.476562 100.074219 L 196.476562 101.355469 C 197.066406 100.4375 198.105469 99.976562 199.59375 99.976562 Z M 199.59375 99.976562 " fill-opacity="1" fill-rule="nonzero"/><path fill="#000000" d="M 201.445312 97.355469 L 203.578125 97.355469 L 203.578125 108.832031 L 201.445312 108.832031 Z M 201.445312 97.355469 " fill-opacity="1" fill-rule="nonzero"/><path fill="#000000" d="M 214.105469 100.941406 C 214.773438 101.589844 215.109375 102.546875 215.109375 103.816406 L 215.109375 108.832031 L 213.054688 108.832031 L 213.054688 104.078125 C 213.054688 103.3125 212.878906 102.734375 212.515625 102.347656 C 212.15625 101.960938 211.640625 101.761719 210.976562 101.761719 C 210.222656 101.761719 209.625 101.988281 209.1875 102.445312 C 208.75 102.898438 208.53125 103.550781 208.53125 104.402344 L 208.53125 108.832031 L 206.484375 108.832031 L 206.484375 100.074219 L 208.433594 100.074219 L 208.433594 101.203125 C 208.769531 100.800781 209.199219 100.496094 209.710938 100.289062 C 210.226562 100.078125 210.804688 99.972656 211.453125 99.972656 C 212.550781 99.976562 213.441406 100.300781 214.105469 100.941406 Z M 214.105469 100.941406 " fill-opacity="1" fill-rule="nonzero"/><path fill="#000000" d="M 218.335938 108.667969 C 217.65625 108.480469 217.117188 108.246094 216.710938 107.960938 L 217.5 106.40625 C 217.890625 106.664062 218.363281 106.875 218.917969 107.035156 C 219.46875 107.195312 220.011719 107.273438 220.550781 107.273438 C 221.773438 107.273438 222.382812 106.953125 222.382812 106.304688 C 222.382812 106 222.230469 105.785156 221.917969 105.667969 C 221.605469 105.546875 221.105469 105.433594 220.417969 105.324219 C 219.695312 105.214844 219.109375 105.089844 218.652344 104.945312 C 218.199219 104.804688 217.808594 104.554688 217.472656 104.203125 C 217.140625 103.84375 216.972656 103.351562 216.972656 102.71875 C 216.972656 101.886719 217.320312 101.222656 218.015625 100.726562 C 218.707031 100.226562 219.644531 99.976562 220.828125 99.976562 C 221.429688 99.976562 222.03125 100.050781 222.632812 100.183594 C 223.234375 100.320312 223.726562 100.503906 224.105469 100.734375 L 223.324219 102.292969 C 222.578125 101.855469 221.742188 101.636719 220.8125 101.636719 C 220.210938 101.636719 219.753906 101.726562 219.445312 101.90625 C 219.132812 102.085938 218.976562 102.324219 218.976562 102.617188 C 218.976562 102.949219 219.140625 103.179688 219.476562 103.316406 C 219.808594 103.453125 220.324219 103.582031 221.023438 103.703125 C 221.726562 103.8125 222.300781 103.9375 222.746094 104.078125 C 223.195312 104.222656 223.582031 104.460938 223.902344 104.800781 C 224.226562 105.140625 224.390625 105.621094 224.390625 106.246094 C 224.390625 107.0625 224.03125 107.71875 223.324219 108.210938 C 222.613281 108.703125 221.644531 108.949219 220.421875 108.949219 C 219.707031 108.945312 219.011719 108.855469 218.335938 108.667969 Z M 218.335938 108.667969 " fill-opacity="1" fill-rule="nonzero"/><path fill="#000000" d="M 226.257812 98.277344 C 226.007812 98.042969 225.882812 97.75 225.882812 97.402344 C 225.882812 97.050781 226.007812 96.757812 226.257812 96.523438 C 226.511719 96.289062 226.820312 96.171875 227.191406 96.171875 C 227.5625 96.171875 227.875 96.285156 228.128906 96.507812 C 228.378906 96.730469 228.503906 97.015625 228.503906 97.351562 C 228.503906 97.714844 228.382812 98.015625 228.132812 98.261719 C 227.890625 98.507812 227.574219 98.632812 227.191406 98.632812 C 226.820312 98.632812 226.511719 98.511719 226.257812 98.277344 Z M 226.160156 100.078125 L 228.210938 100.078125 L 228.210938 108.832031 L 226.160156 108.832031 Z M 226.160156 100.078125 " fill-opacity="1" fill-rule="nonzero"/><path fill="#000000" d="M 239.585938 100.078125 L 239.585938 107.503906 C 239.585938 110.585938 238.015625 112.128906 234.867188 112.128906 C 234.023438 112.128906 233.226562 112.023438 232.472656 111.808594 C 231.714844 111.59375 231.09375 111.289062 230.601562 110.882812 L 231.519531 109.339844 C 231.902344 109.65625 232.386719 109.910156 232.96875 110.101562 C 233.554688 110.292969 234.148438 110.390625 234.75 110.390625 C 235.714844 110.390625 236.417969 110.167969 236.863281 109.734375 C 237.3125 109.296875 237.539062 108.628906 237.539062 107.734375 L 237.539062 107.273438 C 237.1875 107.660156 236.761719 107.945312 236.261719 108.140625 C 235.757812 108.339844 235.203125 108.4375 234.601562 108.4375 C 233.773438 108.4375 233.023438 108.261719 232.347656 107.902344 C 231.675781 107.550781 231.144531 107.050781 230.757812 106.40625 C 230.371094 105.757812 230.175781 105.019531 230.175781 104.1875 C 230.175781 103.359375 230.371094 102.625 230.757812 101.988281 C 231.144531 101.34375 231.675781 100.851562 232.347656 100.5 C 233.023438 100.152344 233.773438 99.976562 234.601562 99.976562 C 235.238281 99.976562 235.816406 100.078125 236.335938 100.289062 C 236.851562 100.496094 237.285156 100.8125 237.636719 101.238281 L 237.636719 100.074219 L 239.585938 100.074219 Z M 236.828125 106.003906 C 237.324219 105.542969 237.570312 104.9375 237.570312 104.191406 C 237.570312 103.457031 237.324219 102.863281 236.828125 102.40625 C 236.328125 101.945312 235.691406 101.714844 234.914062 101.714844 C 234.128906 101.714844 233.488281 101.945312 232.988281 102.40625 C 232.492188 102.863281 232.242188 103.457031 232.242188 104.191406 C 232.242188 104.933594 232.492188 105.539062 232.988281 106.003906 C 233.488281 106.46875 234.128906 106.699219 234.914062 106.699219 C 235.691406 106.699219 236.328125 106.46875 236.828125 106.003906 Z M 236.828125 106.003906 " fill-opacity="1" fill-rule="nonzero"/><path fill="#000000" d="M 249.90625 100.941406 C 250.570312 101.589844 250.902344 102.546875 250.902344 103.816406 L 250.902344 108.832031 L 248.855469 108.832031 L 248.855469 104.078125 C 248.855469 103.3125 248.675781 102.734375 248.316406 102.347656 C 247.953125 101.960938 247.4375 101.761719 246.773438 101.761719 C 246.015625 101.761719 245.421875 101.988281 244.984375 102.445312 C 244.550781 102.898438 244.328125 103.550781 244.328125 104.402344 L 244.328125 108.832031 L 242.277344 108.832031 L 242.277344 96.664062 L 244.328125 96.664062 L 244.328125 101.089844 C 244.667969 100.730469 245.085938 100.453125 245.582031 100.261719 C 246.082031 100.074219 246.636719 99.972656 247.246094 99.972656 C 248.351562 99.976562 249.238281 100.300781 249.90625 100.941406 Z M 249.90625 100.941406 " fill-opacity="1" fill-rule="nonzero"/><path fill="#000000" d="M 258.773438 108.355469 C 258.535156 108.550781 258.242188 108.703125 257.898438 108.800781 C 257.554688 108.894531 257.191406 108.945312 256.808594 108.945312 C 255.84375 108.945312 255.105469 108.695312 254.578125 108.191406 C 254.054688 107.6875 253.792969 106.957031 253.792969 105.992188 L 253.792969 101.777344 L 252.347656 101.777344 L 252.347656 100.140625 L 253.792969 100.140625 L 253.792969 98.140625 L 255.84375 98.140625 L 255.84375 100.140625 L 258.1875 100.140625 L 258.1875 101.777344 L 255.84375 101.777344 L 255.84375 105.945312 C 255.84375 106.371094 255.945312 106.695312 256.152344 106.921875 C 256.363281 107.140625 256.660156 107.253906 257.054688 107.253906 C 257.515625 107.253906 257.894531 107.136719 258.199219 106.894531 Z M 258.773438 108.355469 " fill-opacity="1" fill-rule="nonzero"/><path fill="#000000" d="M 261.085938 108.667969 C 260.410156 108.480469 259.871094 108.246094 259.464844 107.960938 L 260.25 106.40625 C 260.644531 106.664062 261.117188 106.875 261.667969 107.035156 C 262.222656 107.195312 262.765625 107.273438 263.296875 107.273438 C 264.523438 107.273438 265.136719 106.953125 265.136719 106.304688 C 265.136719 106 264.980469 105.785156 264.667969 105.667969 C 264.359375 105.546875 263.855469 105.433594 263.167969 105.324219 C 262.445312 105.214844 261.855469 105.089844 261.40625 104.945312 C 260.949219 104.804688 260.558594 104.554688 260.226562 104.203125 C 259.890625 103.84375 259.722656 103.351562 259.722656 102.71875 C 259.722656 101.886719 260.070312 101.222656 260.765625 100.726562 C 261.460938 100.226562 262.398438 99.976562 263.582031 99.976562 C 264.183594 99.976562 264.78125 100.050781 265.382812 100.183594 C 265.984375 100.320312 266.476562 100.503906 266.859375 100.734375 L 266.070312 102.292969 C 265.328125 101.855469 264.492188 101.636719 263.5625 101.636719 C 262.960938 101.636719 262.507812 101.726562 262.195312 101.90625 C 261.882812 102.085938 261.726562 102.324219 261.726562 102.617188 C 261.726562 102.949219 261.894531 103.179688 262.226562 103.316406 C 262.5625 103.453125 263.078125 103.582031 263.777344 103.703125 C 264.476562 103.8125 265.050781 103.9375 265.5 104.078125 C 265.949219 104.222656 266.332031 104.460938 266.65625 104.800781 C 266.980469 105.140625 267.136719 105.621094 267.136719 106.246094 C 267.136719 107.0625 266.785156 107.71875 266.070312 108.210938 C 265.359375 108.703125 264.394531 108.949219 263.167969 108.949219 C 262.457031 108.945312 261.765625 108.855469 261.085938 108.667969 Z M 261.085938 108.667969 " fill-opacity="1" fill-rule="nonzero"/></svg>