<svg xmlns="http://www.w3.org/2000/svg" id="logo-26" fill="none" viewBox="1.51 1.93 37 32.15"> <path d="M11.3078 32.6547L8.05536 27.0213L12.8285 18.7767L15.8616 24.0306L33.7668 24.021L28.6861 32.7325L11.3078 32.6547Z" class="ccompli2" fill="#FFAD64"></path> <path d="M36.9641 18.4272L33.7117 24.0605L24.1851 24.0493L27.2185 18.7955L18.2576 3.29395L28.3423 3.3382L36.9641 18.4272Z" class="ccompli1" fill="#ADD4D3"></path> <path d="M11.8091 3.26395H18.314L23.0675 11.52L17.0008 11.5197L8.05663 27.0309L3.05255 18.2752L11.8091 3.26395Z" class="ccustom" fill="#FF7043"></path> <path fill-rule="evenodd" clip-rule="evenodd" d="M19.107 1.95961L19.0876 1.92596H11.0406L1.50755 18.2684L8.05149 29.7184L8.05952 29.7045L10.5334 33.9894L29.4528 34.074L36.0969 22.6817H36.0527L38.5071 18.4306L29.1207 2.00354L19.107 1.95961ZM25.3318 12.858H25.382L20.6517 4.64252L27.5638 4.67283L35.421 18.4237L32.9617 22.6835L26.5167 22.6869L28.7638 18.795L25.3318 12.858ZM17.4683 4.60202L20.6937 10.1818L16.2279 10.1817L8.58236 23.4406L8.06084 24.3415L4.59771 18.282L12.5777 4.60202H17.4683ZM14.3672 18.7656L17.7738 12.8578L22.2408 12.858L25.6732 18.7958L23.4256 22.6886L16.6341 22.6923L14.3672 18.7656ZM9.60358 27.0267L10.8996 24.7792L12.8269 21.4501L15.0894 25.3692L21.8799 25.3655L21.8689 25.3845L31.4161 25.3958L27.9196 31.3911L12.0824 31.3202L9.60358 27.0267Z" class="cneutral" fill="#333237"></path></svg>