<?xml version="1.0" encoding="utf-8"?>
<!-- Generator: Adobe Illustrator 25.2.1, SVG Export Plug-In . SVG Version: 6.00 Build 0)  -->
<svg version="1.1" id="Camada_1" xmlns="http://www.w3.org/2000/svg" xmlns:xlink="http://www.w3.org/1999/xlink" x="0px" y="0px"
	 viewBox="0 0 1080 1080" style="enable-background:new 0 0 1080 1080;" xml:space="preserve">
<style type="text/css">
	.st0{fill:#FFFFFF;}
	.st1{font-family:'Montserrat-SemiBold';}
	.st2{font-size:105.6936px;}
</style>
<g>
	<g>
		<path d="M182.81,443.17c-13.55-5.63-28.24-8.45-44.08-8.45c-15.27,0-29.44,2.53-42.51,7.58c-13.07,5.06-24.43,12.27-34.06,21.61
			c-9.64,9.35-17.08,20.28-22.33,32.78c-5.25,12.5-7.87,26.19-7.87,41.08c0,14.88,2.62,28.58,7.87,41.08
			c5.25,12.5,12.64,23.43,22.18,32.78c9.54,9.35,20.85,16.56,33.92,21.61c2.86,1.11,5.79,2.08,8.76,2.93
			c-0.06-10.2-0.08-22.48-0.05-33.97c-6.49-3.24-12.31-7.34-17.44-12.33c-6.68-6.49-11.83-14.12-15.46-22.9
			c-3.63-8.77-5.44-18.51-5.44-29.2c0-10.69,1.81-20.42,5.44-29.2c3.62-8.77,8.77-16.41,15.46-22.9
			c6.68-6.49,14.5-11.49,23.47-15.03c8.97-3.53,18.89-5.3,29.77-5.3c10.49,0,20.32,1.96,29.48,5.87
			c9.16,3.91,17.36,9.88,24.62,17.89l22.33-21.47C207.71,456.96,196.35,448.8,182.81,443.17z"/>
		<path d="M194.54,586.16c-4.17,4.71-8.65,8.71-13.45,12c0.06,10.53,0.07,23.13,0.04,34.74c0.56-0.22,1.12-0.42,1.67-0.65
			c13.55-5.72,24.9-13.93,34.06-24.62L194.54,586.16z"/>
	</g>
	<g>
		<path d="M169.79,556.66c0.52-2.25-0.36-4.03-1.46-5.61c-1.61-2.33-3.87-3.56-6.83-3.24c-2.02,0.22-4.36,1.93-4.92,3.88
			c-0.61,2.16,0.18,3.95,1.73,5.46c0.23,0.22,0.49,0.44,0.78,0.54c3.09,1.02,2.57,4.08,3.53,6.3c0.05,0.11-0.63,0.79-0.94,0.77
			c-8.7-0.58-14.28-8.27-10.99-16.26c2.98-7.22,12.45-9.12,18.64-5.19c4.43,2.81,6.46,6.9,6.77,11.87c0.11,1.74-0.65,3.54-1.07,5.31
			c-0.12,0.51-0.4,0.98-0.74,1.78c1.9-0.07,3.27-0.74,4.43-1.72c2.84-2.38,4.64-5.3,4.18-9.2c-0.12-1.05,0.24-1.85,1.06-2.52
			c5.93-4.84,6.44-14.13,2.25-19.75c-0.7-0.94-0.86-1.71-0.47-2.75c1.7-4.57,1.07-8.96-1.43-13.03c-0.96-1.57-2.45-2.8-3.66-4.22
			c-0.43-0.5-1-1.04-1.09-1.63c-0.62-4.28-2.84-7.54-6.67-9.31c-3.04-1.4-5.43-3.22-7.67-5.73c-4.67-5.22-17.31-5.84-21.39,3.74
			c-0.35,0.83-0.6,1.7-1,2.88c-0.23-0.68-0.41-1.11-0.51-1.55c-1.15-5.03-5.64-8.56-10.83-8.71c-3.39-0.1-6.56,0.43-9.45,2.27
			c-1.76,1.12-2.85,2.79-3.89,4.53c-0.35,0.58-1.1,1.25-1.71,1.29c-4.4,0.33-9.54,5.2-9.96,10.65c-0.04,0.47-0.34,1.09-0.71,1.35
			c-3.42,2.37-5.45,5.66-6.27,9.66c-0.51,2.52-0.59,5.11,0.36,7.57c0.52,1.34,0.32,2.29-0.57,3.49c-2.54,3.44-2.97,7.36-2.11,11.49
			c0.63,3.02,2.09,5.55,4.34,7.61c0.93,0.84,1.35,1.76,1.23,3.01c-0.48,5.09,5.42,11.32,10.01,11.93c0.68,0.09,1.38,0.81,1.87,1.41
			c2.24,2.79,5.18,4.47,8.55,5.42c8.45,2.37,13.92,7.76,15.98,16.26c0.7,2.88,0.43,5.99,0.57,9c0.05,1.14,0.03,2.29,0.01,3.44
			c-0.02,0.87,0.31,1.18,1.23,1.16c3.43-0.06,6.87,0.01,10.31-0.06c1.27-0.03,1.75,0.4,1.65,1.67c-0.08,1.05-0.03,2.11-0.02,3.16
			c0.01,0.8-0.32,1.16-1.15,1.15c-5.77-0.04-11.54-0.08-17.32-0.07c-1.3,0-1.75-0.49-1.72-1.79c0.06-3.66-0.06-7.33,0.02-10.99
			c0.19-8.82-4.44-13.79-12-16.77c-6.65-2.62-13-5.81-17.99-11.04c-2.25-2.36-4.19-5.1-5.83-7.93c-3.6-6.19-5.9-12.85-6.65-20.05
			c-0.66-6.33,0.24-12.45,1.7-18.59c1.23-5.18,3.19-10.04,5.93-14.56c1.43-2.37,3.2-4.57,5.02-6.67c4.35-5.05,9.59-9.02,15.49-12.09
			c4.45-2.32,9.18-3.82,14.13-4.74c5.24-0.98,10.52-0.8,15.74-0.54c6.59,0.33,12.9,2.25,18.79,5.24
			c10.85,5.5,18.74,13.9,23.83,24.92c1.99,4.32,3.03,8.94,3.46,13.65c0.36,4,0.46,8.03,0.64,12.05c0.28,6.6-1.88,12.63-4.53,18.5
			c-1.8,3.98-4.21,7.59-7.13,10.87c-4.93,5.53-13.17,4.1-16.79-1.13c-1.06-1.53-1.97-3.19-2.74-4.88c-0.83-1.81-0.39-3.23,0.98-4.13
			c1.5-0.98,2.92-0.73,4.39,0.77C169.34,556.39,169.5,556.46,169.79,556.66z"/>
		<path d="M180.59,576.96c0,1.21,0.03,2.43-0.01,3.64c-0.05,1.64-0.12,3.29-0.22,4.93c-0.06,0.86-0.56,1.13-1.45,1.25
			c-5.97,0.83-10.53,3.85-11.59,9.79c-0.56,3.14-0.25,6.45-0.3,9.68c-0.02,1.78,0.12,3.57,0.05,5.35
			c-0.17,4.25-0.22,8.52-0.71,12.73c-0.33,2.81-1.98,5.1-4.57,6.5c-0.83,0.45-1.19,1.02-1.12,1.97c0.48,6.4-5.66,12.23-11.71,12.33
			c-3.8,0.06-7.6,0.18-11.4,0.11c-5.94-0.12-12.44-5.49-12.32-12.37c0.02-1.08-0.34-1.77-1.3-2.33c-3.36-1.98-4.99-5-4.99-8.89
			c-0.01-7.15-0.15-14.3,0.04-21.44c0.19-7.07-4.51-11.79-10.85-13.19c-3.02-0.67-2.98-0.63-3.04-3.74
			c-0.04-1.86-0.25-3.73-0.37-5.59c-0.01-0.21,0.08-0.42,0.15-0.81c1.28,0.69,2.44,1.37,3.65,1.95c2.81,1.33,5.78,2.38,8.43,3.97
			c5.58,3.34,8.83,8.16,8.75,14.95c-0.09,7.37-0.02,14.75-0.02,22.13c0,3.58,1.63,5.21,5.19,5.21c7.97,0,15.94,0,23.91,0
			c3.6,0,5.24-1.62,5.26-5.34c0.04-7.6-0.04-15.21,0.03-22.81c0.07-6.49,3.25-11.23,8.76-14.4c2.73-1.57,5.67-2.76,8.5-4.16
			c0.97-0.48,1.87-1.07,2.81-1.62C180.28,576.84,180.44,576.9,180.59,576.96z M142.89,631.58c0,0.02,0,0.03,0,0.05
			c-3.2,0-6.41,0.02-9.61-0.01c-1.13-0.01-1.42,0.57-1.32,1.56c0.24,2.38,2.68,4.71,5.11,4.74c3.8,0.05,7.6,0.06,11.39,0
			c2.62-0.04,4.84-2.04,5.24-4.57c0.21-1.35-0.13-1.77-1.48-1.77C149.11,631.58,146,631.58,142.89,631.58z"/>
		<path d="M179.42,527.2c0.66-2.36,1.03-4.72,0.59-7.27c-1.08-6.23-7.35-10.8-12.58-11.49c-2.5-0.33-5.08-0.12-7.61-0.01
			c-1.69,0.08-2.89,1.67-2.61,3.38c0.16,0.97,0.53,1.96,1,2.82c0.42,0.76,1.02,1.59,2.13,0.69c0.23-0.19,0.71-0.11,1.07-0.11
			c1.33-0.02,2.67,0.1,3.98-0.07c1.95-0.26,3.64,0.33,5.14,1.41c2.35,1.69,3.82,4.02,3.19,6.95c-0.61,2.89-2.44,4.97-5.47,5.73
			c-0.87,0.22-1.68,0.25-2.34-0.61c-1.1-1.44-2.73-1.76-4.24-0.92c-1.58,0.87-2.29,2.54-1.77,4.18c0.71,2.28,3.16,4.1,5.71,4.3
			c5.15,0.39,9.15-1.63,12.17-5.74c0.2-0.28,0.34-0.51,0.62-0.82c0.28-0.38,0.35-0.51,0.62-1.13"/>
		<path d="M141.54,532.89c0-4.95,0.05-9.9-0.03-14.84c-0.03-2.03-0.36-4.06-2.13-5.43c-0.6-0.47-1.32-0.82-2.02-1.11
			c-1.96-0.82-3.5-1.98-3.87-4.25c-0.25-1.53,0.58-3.27,1.92-3.92c1.23-0.6,2.47-0.31,3.3,0.77c0.45,0.58,0.85,1.19,1.3,1.77
			c1.62,2.07,4.22,2.03,5.81-0.07c0.3-0.4,0.62-0.81,0.81-1.27c0.43-1.07,1.16-1.57,2.33-1.5c1.2,0.07,2.24,0.39,2.88,1.53
			c1.36,2.42,0.11,6.11-2.61,6.77c-3.97,0.97-5.15,3.81-5.08,7.23c0.11,5.22,0.1,10.44,0.16,15.66c0.04,3.42,0.13,6.85,0.13,10.27
			c0,1.46-0.12,2.92-0.34,4.36c-0.05,0.34-0.73,0.85-1.06,0.81c-0.52-0.06-1.1-0.44-1.43-0.86c-0.23-0.29-0.08-0.88-0.08-1.34
			C141.54,542.6,141.54,537.75,141.54,532.89z"/>
		<path d="M136.37,522.14c0.26,1.13,0.51,1.78,0.54,2.45c0.14,3.95,0.76,7.92-0.26,11.85c-0.64,2.46-1.59,4.72-3.42,6.61
			c-2.16,2.22-4.46,4.18-7.45,5.22c-0.98,0.34-1.73,0.3-2.42-0.57c-1.11-1.39-2.32-2.71-3.45-4.08c-0.62-0.75-0.21-1.05,0.57-1.34
			c1.99-0.74,4.13-1.29,5.88-2.43c3.82-2.49,4.83-6.42,4.38-10.7c-0.14-1.36,0.04-2.3,1.04-3.14
			C133.23,524.79,134.67,523.57,136.37,522.14z"/>
		<path d="M107.9,522.14c-0.07-1.16,0.13-6.93,0.21-7.59c0.49-3.93,0.87-4.5,1.77-6.57c1.02-2.33,2.32-4.41,4.42-5.98
			c2.49-1.85,5.06-3.43,8.18-3.98c1.03-0.18,1.75-0.02,2.3,0.94c0.88,1.55,0.61,0.67,1.51,2.21c0.49,0.84,0.04,1.57-0.77,1.74
			c-2.08,0.42-4.29,0.62-6.19,1.47c-4.16,1.85-5.27,7.41-5.5,11.71c-0.07,1.37,0.59,3.79-0.53,4.46
			C111.67,521.52,109.79,521,107.9,522.14z"/>
		<path d="M142.79,612.86c2.88,0,5.76,0.03,8.64-0.02c1.12-0.02,1.59,0.37,1.52,1.51c-0.07,1.09-0.03,2.19-0.02,3.29
			c0.01,0.82-0.36,1.13-1.17,1.12c-5.76-0.04-11.52-0.08-17.28-0.06c-1.29,0-1.84-0.43-1.73-1.75c0.07-0.77,0-1.55-0.04-2.33
			c-0.09-1.69-0.04-1.75,1.71-1.76C137.21,612.85,140,612.86,142.79,612.86z"/>
		<path d="M120.01,536.19c-3.36-0.01-5.76-1-8-2.52c-0.83-0.56-0.93-1.16-0.32-1.93c0.79-1,1.57-2.01,2.33-3.04
			c0.42-0.56,0.82-0.71,1.5-0.32c0.7,0.4,1.5,0.77,2.28,0.86c0.58,0.07,1.38-0.15,1.81-0.54c2.08-1.92,3.98-2.07,5.54-0.26
			c1.73,2.01,1.52,4.14-0.76,6.23C123.07,535.87,121.57,536.21,120.01,536.19z"/>
		<path d="M126.64,564.49c-3.35-0.21-6.42-1.01-8.56-2.66c-4.42-1.65-11.71-10.78-11.06-11.52c0.85-0.95,2.58-1.71,3.4-2.68
			c0.45-0.54,4.25,8.03,9.84,9.25c0.68,0.44,3.79,0.39,4.57,0.53c0.58,0.1,1.39-0.07,1.84-0.44c2.19-1.79,4.1-1.83,5.55,0.07
			c1.61,2.11,1.27,4.22-1.13,6.18C129.72,564.35,128.19,564.6,126.64,564.49z"/>
	</g>
	<text transform="matrix(1 0 0 1 287.3796 569.9711)" class="st1 st2">CoderInsights</text>
</g>
</svg>
